<svg width="26" height="25" viewBox="0 0 26 25" fill="none" xmlns="http://www.w3.org/2000/svg">
<path d="M6.67883 6.72707L7.52134 19.5558C7.56136 20.2971 8.12794 20.8387 8.86935 20.8387H16.6204C17.3648 20.8387 17.9208 20.2971 17.9684 19.5558L18.8109 6.72707" stroke="#1D1D1B" stroke-width="1.57538" stroke-linecap="round" stroke-linejoin="round"/>
<path d="M5.33081 6.72707H20.1589H5.33081Z" fill="#1D1D1B"/>
<path d="M5.33081 6.72707H20.1589" stroke="#1D1D1B" stroke-width="1.57538" stroke-miterlimit="10" stroke-linecap="round"/>
<path d="M10.0488 6.72708V5.12348C10.0484 4.99702 10.0743 4.87174 10.125 4.75484C10.1757 4.63794 10.2501 4.53172 10.3441 4.4423C10.438 4.35289 10.5496 4.28203 10.6725 4.23381C10.7953 4.18558 10.927 4.16095 11.0598 4.16132H14.4299C14.5627 4.16095 14.6944 4.18558 14.8172 4.23381C14.9401 4.28203 15.0517 4.35289 15.1456 4.4423C15.2396 4.53172 15.314 4.63794 15.3647 4.75484C15.4154 4.87174 15.4413 4.99702 15.4409 5.12348V6.72708" stroke="#1D1D1B" stroke-width="1.57538" stroke-linecap="round" stroke-linejoin="round"/>
<path d="M12.7449 9.29283V18.273" stroke="#1D1D1B" stroke-width="1.57538" stroke-linecap="round" stroke-linejoin="round"/>
<path d="M9.71179 9.29283L10.0488 18.273" stroke="#1D1D1B" stroke-width="1.57538" stroke-linecap="round" stroke-linejoin="round"/>
<path d="M15.7779 9.29283L15.4409 18.273" stroke="#1D1D1B" stroke-width="1.57538" stroke-linecap="round" stroke-linejoin="round"/>
</svg>
