<svg xmlns="http://www.w3.org/2000/svg" width="320" height="299" viewBox="0 0 320 299">
  <g id="Group_1494" data-name="Group 1494" transform="translate(-310 -3763)">
    <circle id="Ellipse_67" data-name="Ellipse 67" cx="4.5" cy="4.5" r="4.5" transform="translate(310 3763)" fill="#f92524"/>
    <circle id="Ellipse_68" data-name="Ellipse 68" cx="4.5" cy="4.5" r="4.5" transform="translate(345 3763)" fill="#f92524"/>
    <circle id="Ellipse_69" data-name="Ellipse 69" cx="4.5" cy="4.5" r="4.5" transform="translate(379 3763)" fill="#f92524"/>
    <circle id="Ellipse_70" data-name="Ellipse 70" cx="4.5" cy="4.5" r="4.5" transform="translate(414 3763)" fill="#f92524"/>
    <circle id="Ellipse_71" data-name="Ellipse 71" cx="4.5" cy="4.5" r="4.5" transform="translate(448 3763)" fill="#f92524"/>
    <circle id="Ellipse_72" data-name="Ellipse 72" cx="4.5" cy="4.5" r="4.5" transform="translate(483 3763)" fill="#f92524"/>
    <circle id="Ellipse_73" data-name="Ellipse 73" cx="4.5" cy="4.5" r="4.5" transform="translate(518 3763)" fill="#f92524"/>
    <circle id="Ellipse_74" data-name="Ellipse 74" cx="4.5" cy="4.5" r="4.5" transform="translate(552 3763)" fill="#f92524"/>
    <circle id="Ellipse_75" data-name="Ellipse 75" cx="4.5" cy="4.5" r="4.5" transform="translate(587 3763)" fill="#f92524"/>
    <circle id="Ellipse_76" data-name="Ellipse 76" cx="4.5" cy="4.5" r="4.5" transform="translate(621 3763)" fill="#f92524"/>
    <circle id="Ellipse_67-2" data-name="Ellipse 67" cx="4.5" cy="4.5" r="4.5" transform="translate(310 3804)" fill="#f92524"/>
    <circle id="Ellipse_68-2" data-name="Ellipse 68" cx="4.5" cy="4.5" r="4.5" transform="translate(345 3804)" fill="#f92524"/>
    <circle id="Ellipse_69-2" data-name="Ellipse 69" cx="4.5" cy="4.5" r="4.5" transform="translate(379 3804)" fill="#f92524"/>
    <circle id="Ellipse_70-2" data-name="Ellipse 70" cx="4.5" cy="4.5" r="4.5" transform="translate(414 3804)" fill="#f92524"/>
    <circle id="Ellipse_71-2" data-name="Ellipse 71" cx="4.5" cy="4.5" r="4.5" transform="translate(448 3804)" fill="#f92524"/>
    <circle id="Ellipse_72-2" data-name="Ellipse 72" cx="4.5" cy="4.5" r="4.5" transform="translate(483 3804)" fill="#f92524"/>
    <circle id="Ellipse_73-2" data-name="Ellipse 73" cx="4.5" cy="4.5" r="4.5" transform="translate(518 3804)" fill="#f92524"/>
    <circle id="Ellipse_74-2" data-name="Ellipse 74" cx="4.5" cy="4.5" r="4.5" transform="translate(552 3804)" fill="#f92524"/>
    <circle id="Ellipse_75-2" data-name="Ellipse 75" cx="4.5" cy="4.5" r="4.5" transform="translate(587 3804)" fill="#f92524"/>
    <circle id="Ellipse_76-2" data-name="Ellipse 76" cx="4.5" cy="4.5" r="4.5" transform="translate(621 3804)" fill="#f92524"/>
    <circle id="Ellipse_67-3" data-name="Ellipse 67" cx="4.5" cy="4.5" r="4.5" transform="translate(310 3846)" fill="#f92524"/>
    <circle id="Ellipse_68-3" data-name="Ellipse 68" cx="4.5" cy="4.5" r="4.5" transform="translate(345 3846)" fill="#f92524"/>
    <circle id="Ellipse_69-3" data-name="Ellipse 69" cx="4.5" cy="4.5" r="4.5" transform="translate(379 3846)" fill="#f92524"/>
    <circle id="Ellipse_70-3" data-name="Ellipse 70" cx="4.5" cy="4.5" r="4.5" transform="translate(414 3846)" fill="#f92524"/>
    <circle id="Ellipse_71-3" data-name="Ellipse 71" cx="4.5" cy="4.5" r="4.5" transform="translate(448 3846)" fill="#f92524"/>
    <circle id="Ellipse_72-3" data-name="Ellipse 72" cx="4.5" cy="4.5" r="4.5" transform="translate(483 3846)" fill="#f92524"/>
    <circle id="Ellipse_73-3" data-name="Ellipse 73" cx="4.5" cy="4.5" r="4.5" transform="translate(518 3846)" fill="#f92524"/>
    <circle id="Ellipse_74-3" data-name="Ellipse 74" cx="4.5" cy="4.5" r="4.5" transform="translate(552 3846)" fill="#f92524"/>
    <circle id="Ellipse_75-3" data-name="Ellipse 75" cx="4.5" cy="4.5" r="4.5" transform="translate(587 3846)" fill="#f92524"/>
    <circle id="Ellipse_76-3" data-name="Ellipse 76" cx="4.5" cy="4.5" r="4.5" transform="translate(621 3846)" fill="#f92524"/>
    <circle id="Ellipse_67-4" data-name="Ellipse 67" cx="4.5" cy="4.5" r="4.5" transform="translate(310 3887)" fill="#f92524"/>
    <circle id="Ellipse_68-4" data-name="Ellipse 68" cx="4.5" cy="4.5" r="4.5" transform="translate(345 3887)" fill="#f92524"/>
    <circle id="Ellipse_69-4" data-name="Ellipse 69" cx="4.5" cy="4.5" r="4.5" transform="translate(379 3887)" fill="#f92524"/>
    <circle id="Ellipse_70-4" data-name="Ellipse 70" cx="4.5" cy="4.5" r="4.5" transform="translate(414 3887)" fill="#f92524"/>
    <circle id="Ellipse_71-4" data-name="Ellipse 71" cx="4.5" cy="4.5" r="4.5" transform="translate(448 3887)" fill="#f92524"/>
    <circle id="Ellipse_72-4" data-name="Ellipse 72" cx="4.5" cy="4.5" r="4.5" transform="translate(483 3887)" fill="#f92524"/>
    <circle id="Ellipse_73-4" data-name="Ellipse 73" cx="4.5" cy="4.5" r="4.5" transform="translate(518 3887)" fill="#f92524"/>
    <circle id="Ellipse_74-4" data-name="Ellipse 74" cx="4.5" cy="4.5" r="4.5" transform="translate(552 3887)" fill="#f92524"/>
    <circle id="Ellipse_75-4" data-name="Ellipse 75" cx="4.5" cy="4.5" r="4.5" transform="translate(587 3887)" fill="#f92524"/>
    <circle id="Ellipse_76-4" data-name="Ellipse 76" cx="4.5" cy="4.5" r="4.5" transform="translate(621 3887)" fill="#f92524"/>
    <circle id="Ellipse_67-5" data-name="Ellipse 67" cx="4.5" cy="4.5" r="4.5" transform="translate(310 3929)" fill="#f92524"/>
    <circle id="Ellipse_68-5" data-name="Ellipse 68" cx="4.5" cy="4.5" r="4.5" transform="translate(345 3929)" fill="#f92524"/>
    <circle id="Ellipse_69-5" data-name="Ellipse 69" cx="4.5" cy="4.5" r="4.5" transform="translate(379 3929)" fill="#f92524"/>
    <circle id="Ellipse_70-5" data-name="Ellipse 70" cx="4.5" cy="4.5" r="4.5" transform="translate(414 3929)" fill="#f92524"/>
    <circle id="Ellipse_71-5" data-name="Ellipse 71" cx="4.5" cy="4.5" r="4.5" transform="translate(448 3929)" fill="#f92524"/>
    <circle id="Ellipse_72-5" data-name="Ellipse 72" cx="4.5" cy="4.5" r="4.5" transform="translate(483 3929)" fill="#f92524"/>
    <circle id="Ellipse_73-5" data-name="Ellipse 73" cx="4.5" cy="4.5" r="4.5" transform="translate(518 3929)" fill="#f92524"/>
    <circle id="Ellipse_74-5" data-name="Ellipse 74" cx="4.5" cy="4.5" r="4.5" transform="translate(552 3929)" fill="#f92524"/>
    <circle id="Ellipse_75-5" data-name="Ellipse 75" cx="4.5" cy="4.5" r="4.5" transform="translate(587 3929)" fill="#f92524"/>
    <circle id="Ellipse_76-5" data-name="Ellipse 76" cx="4.5" cy="4.5" r="4.5" transform="translate(621 3929)" fill="#f92524"/>
    <circle id="Ellipse_67-6" data-name="Ellipse 67" cx="4.5" cy="4.5" r="4.5" transform="translate(310 3970)" fill="#f92524"/>
    <circle id="Ellipse_68-6" data-name="Ellipse 68" cx="4.5" cy="4.5" r="4.5" transform="translate(345 3970)" fill="#f92524"/>
    <circle id="Ellipse_69-6" data-name="Ellipse 69" cx="4.5" cy="4.5" r="4.5" transform="translate(379 3970)" fill="#f92524"/>
    <circle id="Ellipse_70-6" data-name="Ellipse 70" cx="4.5" cy="4.5" r="4.5" transform="translate(414 3970)" fill="#f92524"/>
    <circle id="Ellipse_71-6" data-name="Ellipse 71" cx="4.5" cy="4.5" r="4.5" transform="translate(448 3970)" fill="#f92524"/>
    <circle id="Ellipse_72-6" data-name="Ellipse 72" cx="4.5" cy="4.5" r="4.5" transform="translate(483 3970)" fill="#f92524"/>
    <circle id="Ellipse_73-6" data-name="Ellipse 73" cx="4.5" cy="4.5" r="4.5" transform="translate(518 3970)" fill="#f92524"/>
    <circle id="Ellipse_74-6" data-name="Ellipse 74" cx="4.5" cy="4.5" r="4.5" transform="translate(552 3970)" fill="#f92524"/>
    <circle id="Ellipse_75-6" data-name="Ellipse 75" cx="4.5" cy="4.5" r="4.5" transform="translate(587 3970)" fill="#f92524"/>
    <circle id="Ellipse_76-6" data-name="Ellipse 76" cx="4.5" cy="4.5" r="4.5" transform="translate(621 3970)" fill="#f92524"/>
    <circle id="Ellipse_67-7" data-name="Ellipse 67" cx="4.5" cy="4.5" r="4.5" transform="translate(310 4012)" fill="#f92524"/>
    <circle id="Ellipse_68-7" data-name="Ellipse 68" cx="4.5" cy="4.5" r="4.5" transform="translate(345 4012)" fill="#f92524"/>
    <circle id="Ellipse_69-7" data-name="Ellipse 69" cx="4.5" cy="4.5" r="4.5" transform="translate(379 4012)" fill="#f92524"/>
    <circle id="Ellipse_70-7" data-name="Ellipse 70" cx="4.5" cy="4.5" r="4.5" transform="translate(414 4012)" fill="#f92524"/>
    <circle id="Ellipse_71-7" data-name="Ellipse 71" cx="4.5" cy="4.5" r="4.5" transform="translate(448 4012)" fill="#f92524"/>
    <circle id="Ellipse_72-7" data-name="Ellipse 72" cx="4.5" cy="4.5" r="4.5" transform="translate(483 4012)" fill="#f92524"/>
    <circle id="Ellipse_73-7" data-name="Ellipse 73" cx="4.5" cy="4.5" r="4.5" transform="translate(518 4012)" fill="#f92524"/>
    <circle id="Ellipse_74-7" data-name="Ellipse 74" cx="4.5" cy="4.5" r="4.5" transform="translate(552 4012)" fill="#f92524"/>
    <circle id="Ellipse_75-7" data-name="Ellipse 75" cx="4.5" cy="4.5" r="4.5" transform="translate(587 4012)" fill="#f92524"/>
    <circle id="Ellipse_76-7" data-name="Ellipse 76" cx="4.5" cy="4.5" r="4.5" transform="translate(621 4012)" fill="#f92524"/>
    <circle id="Ellipse_67-8" data-name="Ellipse 67" cx="4.5" cy="4.5" r="4.5" transform="translate(310 4053)" fill="#f92524"/>
    <circle id="Ellipse_68-8" data-name="Ellipse 68" cx="4.5" cy="4.5" r="4.5" transform="translate(345 4053)" fill="#f92524"/>
    <circle id="Ellipse_69-8" data-name="Ellipse 69" cx="4.5" cy="4.5" r="4.5" transform="translate(379 4053)" fill="#f92524"/>
    <circle id="Ellipse_70-8" data-name="Ellipse 70" cx="4.5" cy="4.5" r="4.5" transform="translate(414 4053)" fill="#f92524"/>
    <circle id="Ellipse_71-8" data-name="Ellipse 71" cx="4.5" cy="4.5" r="4.5" transform="translate(448 4053)" fill="#f92524"/>
    <circle id="Ellipse_72-8" data-name="Ellipse 72" cx="4.5" cy="4.5" r="4.5" transform="translate(483 4053)" fill="#f92524"/>
    <circle id="Ellipse_73-8" data-name="Ellipse 73" cx="4.5" cy="4.5" r="4.5" transform="translate(518 4053)" fill="#f92524"/>
    <circle id="Ellipse_74-8" data-name="Ellipse 74" cx="4.5" cy="4.5" r="4.5" transform="translate(552 4053)" fill="#f92524"/>
    <circle id="Ellipse_75-8" data-name="Ellipse 75" cx="4.5" cy="4.5" r="4.5" transform="translate(587 4053)" fill="#f92524"/>
    <circle id="Ellipse_76-8" data-name="Ellipse 76" cx="4.5" cy="4.5" r="4.5" transform="translate(621 4053)" fill="#f92524"/>
  </g>
</svg>
