<svg xmlns="http://www.w3.org/2000/svg" width="320" height="299"><g data-name="Group 1486" transform="translate(-310 -3763)" fill="#b6b8bd"><circle data-name="Ellipse 67" cx="4.5" cy="4.5" r="4.5" transform="translate(310 3763)"/><circle data-name="Ellipse 68" cx="4.5" cy="4.5" r="4.5" transform="translate(345 3763)"/><circle data-name="Ellipse 69" cx="4.5" cy="4.5" r="4.5" transform="translate(379 3763)"/><circle data-name="Ellipse 70" cx="4.5" cy="4.5" r="4.5" transform="translate(414 3763)"/><circle data-name="Ellipse 71" cx="4.5" cy="4.5" r="4.5" transform="translate(448 3763)"/><circle data-name="Ellipse 72" cx="4.5" cy="4.5" r="4.5" transform="translate(483 3763)"/><circle data-name="Ellipse 73" cx="4.5" cy="4.5" r="4.5" transform="translate(518 3763)"/><circle data-name="Ellipse 74" cx="4.5" cy="4.5" r="4.5" transform="translate(552 3763)"/><circle data-name="Ellipse 75" cx="4.5" cy="4.5" r="4.5" transform="translate(587 3763)"/><circle data-name="Ellipse 76" cx="4.5" cy="4.5" r="4.5" transform="translate(621 3763)"/><circle data-name="Ellipse 67" cx="4.5" cy="4.5" r="4.5" transform="translate(310 3804)"/><circle data-name="Ellipse 68" cx="4.5" cy="4.5" r="4.5" transform="translate(345 3804)"/><circle data-name="Ellipse 69" cx="4.5" cy="4.5" r="4.5" transform="translate(379 3804)"/><circle data-name="Ellipse 70" cx="4.5" cy="4.5" r="4.5" transform="translate(414 3804)"/><circle data-name="Ellipse 71" cx="4.5" cy="4.5" r="4.5" transform="translate(448 3804)"/><circle data-name="Ellipse 72" cx="4.5" cy="4.5" r="4.5" transform="translate(483 3804)"/><circle data-name="Ellipse 73" cx="4.5" cy="4.5" r="4.5" transform="translate(518 3804)"/><circle data-name="Ellipse 74" cx="4.5" cy="4.5" r="4.5" transform="translate(552 3804)"/><circle data-name="Ellipse 75" cx="4.5" cy="4.5" r="4.5" transform="translate(587 3804)"/><circle data-name="Ellipse 76" cx="4.5" cy="4.5" r="4.5" transform="translate(621 3804)"/><circle data-name="Ellipse 67" cx="4.5" cy="4.5" r="4.5" transform="translate(310 3846)"/><circle data-name="Ellipse 68" cx="4.5" cy="4.5" r="4.5" transform="translate(345 3846)"/><circle data-name="Ellipse 69" cx="4.5" cy="4.5" r="4.5" transform="translate(379 3846)"/><circle data-name="Ellipse 70" cx="4.5" cy="4.5" r="4.5" transform="translate(414 3846)"/><circle data-name="Ellipse 71" cx="4.5" cy="4.5" r="4.5" transform="translate(448 3846)"/><circle data-name="Ellipse 72" cx="4.5" cy="4.5" r="4.5" transform="translate(483 3846)"/><circle data-name="Ellipse 73" cx="4.5" cy="4.5" r="4.5" transform="translate(518 3846)"/><circle data-name="Ellipse 74" cx="4.5" cy="4.5" r="4.5" transform="translate(552 3846)"/><circle data-name="Ellipse 75" cx="4.5" cy="4.5" r="4.5" transform="translate(587 3846)"/><circle data-name="Ellipse 76" cx="4.5" cy="4.5" r="4.5" transform="translate(621 3846)"/><circle data-name="Ellipse 67" cx="4.5" cy="4.5" r="4.5" transform="translate(310 3887)"/><circle data-name="Ellipse 68" cx="4.5" cy="4.5" r="4.5" transform="translate(345 3887)"/><circle data-name="Ellipse 69" cx="4.5" cy="4.5" r="4.5" transform="translate(379 3887)"/><circle data-name="Ellipse 70" cx="4.5" cy="4.5" r="4.5" transform="translate(414 3887)"/><circle data-name="Ellipse 71" cx="4.5" cy="4.5" r="4.5" transform="translate(448 3887)"/><circle data-name="Ellipse 72" cx="4.5" cy="4.5" r="4.5" transform="translate(483 3887)"/><circle data-name="Ellipse 73" cx="4.5" cy="4.5" r="4.5" transform="translate(518 3887)"/><circle data-name="Ellipse 74" cx="4.5" cy="4.5" r="4.5" transform="translate(552 3887)"/><circle data-name="Ellipse 75" cx="4.5" cy="4.5" r="4.5" transform="translate(587 3887)"/><circle data-name="Ellipse 76" cx="4.5" cy="4.5" r="4.5" transform="translate(621 3887)"/><circle data-name="Ellipse 67" cx="4.5" cy="4.5" r="4.5" transform="translate(310 3929)"/><circle data-name="Ellipse 68" cx="4.5" cy="4.5" r="4.5" transform="translate(345 3929)"/><circle data-name="Ellipse 69" cx="4.5" cy="4.5" r="4.5" transform="translate(379 3929)"/><circle data-name="Ellipse 70" cx="4.5" cy="4.5" r="4.5" transform="translate(414 3929)"/><circle data-name="Ellipse 71" cx="4.5" cy="4.5" r="4.5" transform="translate(448 3929)"/><circle data-name="Ellipse 72" cx="4.5" cy="4.5" r="4.5" transform="translate(483 3929)"/><circle data-name="Ellipse 73" cx="4.5" cy="4.5" r="4.5" transform="translate(518 3929)"/><circle data-name="Ellipse 74" cx="4.5" cy="4.5" r="4.5" transform="translate(552 3929)"/><circle data-name="Ellipse 75" cx="4.5" cy="4.5" r="4.5" transform="translate(587 3929)"/><circle data-name="Ellipse 76" cx="4.5" cy="4.5" r="4.5" transform="translate(621 3929)"/><circle data-name="Ellipse 67" cx="4.5" cy="4.5" r="4.5" transform="translate(310 3970)"/><circle data-name="Ellipse 68" cx="4.5" cy="4.5" r="4.5" transform="translate(345 3970)"/><circle data-name="Ellipse 69" cx="4.5" cy="4.5" r="4.5" transform="translate(379 3970)"/><circle data-name="Ellipse 70" cx="4.5" cy="4.5" r="4.5" transform="translate(414 3970)"/><circle data-name="Ellipse 71" cx="4.5" cy="4.5" r="4.5" transform="translate(448 3970)"/><circle data-name="Ellipse 72" cx="4.5" cy="4.5" r="4.5" transform="translate(483 3970)"/><circle data-name="Ellipse 73" cx="4.5" cy="4.5" r="4.5" transform="translate(518 3970)"/><circle data-name="Ellipse 74" cx="4.5" cy="4.5" r="4.5" transform="translate(552 3970)"/><circle data-name="Ellipse 75" cx="4.5" cy="4.5" r="4.5" transform="translate(587 3970)"/><circle data-name="Ellipse 76" cx="4.5" cy="4.5" r="4.5" transform="translate(621 3970)"/><circle data-name="Ellipse 67" cx="4.5" cy="4.5" r="4.5" transform="translate(310 4012)"/><circle data-name="Ellipse 68" cx="4.5" cy="4.5" r="4.5" transform="translate(345 4012)"/><circle data-name="Ellipse 69" cx="4.5" cy="4.5" r="4.5" transform="translate(379 4012)"/><circle data-name="Ellipse 70" cx="4.5" cy="4.5" r="4.5" transform="translate(414 4012)"/><circle data-name="Ellipse 71" cx="4.5" cy="4.5" r="4.5" transform="translate(448 4012)"/><circle data-name="Ellipse 72" cx="4.5" cy="4.5" r="4.5" transform="translate(483 4012)"/><circle data-name="Ellipse 73" cx="4.5" cy="4.5" r="4.5" transform="translate(518 4012)"/><circle data-name="Ellipse 74" cx="4.5" cy="4.5" r="4.5" transform="translate(552 4012)"/><circle data-name="Ellipse 75" cx="4.5" cy="4.5" r="4.5" transform="translate(587 4012)"/><circle data-name="Ellipse 76" cx="4.5" cy="4.5" r="4.5" transform="translate(621 4012)"/><circle data-name="Ellipse 67" cx="4.5" cy="4.5" r="4.5" transform="translate(310 4053)"/><circle data-name="Ellipse 68" cx="4.5" cy="4.5" r="4.5" transform="translate(345 4053)"/><circle data-name="Ellipse 69" cx="4.5" cy="4.5" r="4.5" transform="translate(379 4053)"/><circle data-name="Ellipse 70" cx="4.5" cy="4.5" r="4.5" transform="translate(414 4053)"/><circle data-name="Ellipse 71" cx="4.5" cy="4.5" r="4.5" transform="translate(448 4053)"/><circle data-name="Ellipse 72" cx="4.5" cy="4.5" r="4.5" transform="translate(483 4053)"/><circle data-name="Ellipse 73" cx="4.5" cy="4.5" r="4.5" transform="translate(518 4053)"/><circle data-name="Ellipse 74" cx="4.5" cy="4.5" r="4.5" transform="translate(552 4053)"/><circle data-name="Ellipse 75" cx="4.5" cy="4.5" r="4.5" transform="translate(587 4053)"/><circle data-name="Ellipse 76" cx="4.5" cy="4.5" r="4.5" transform="translate(621 4053)"/></g></svg>