<svg xmlns="http://www.w3.org/2000/svg" width="70" height="70" viewBox="0 0 70 70"><path id="_4" data-name="4" d="M706.652 1578h48.7A10.664 10.664 0 01766 1588.65v33.48a10.664 10.664 0 01-10.652 10.65H722.5l-14.77 14.77a1.538 1.538 0 01-1.078.45 1.493 1.493 0 01-.581-.12 1.515 1.515 0 01-.941-1.4v-13.81a10.662 10.662 0 01-9.13-10.54v-33.48a10.665 10.665 0 0110.652-10.65zm-7.608 44.13a7.616 7.616 0 007.608 7.61 1.521 1.521 0 011.522 1.52v11.54l12.618-12.62a1.543 1.543 0 011.078-.44h33.478a7.616 7.616 0 007.608-7.61v-33.48a7.616 7.616 0 00-7.608-7.61h-48.7a7.616 7.616 0 00-7.608 7.61v33.48zm31.956-7.61a4.565 4.565 0 11-4.565 4.56 4.571 4.571 0 014.565-4.56zm0 6.09a1.525 1.525 0 10-1.522-1.53 1.53 1.53 0 001.522 1.53zm-4.863-32.03a4.592 4.592 0 013.341-1.45h3.044a4.565 4.565 0 014.553 4.91l-1.287 15a4.789 4.789 0 01-9.551.02l-1.312-15.04a4.586 4.586 0 011.212-3.44zm1.82 3.2l1.314 15.04a1.747 1.747 0 003.485-.02l1.285-15a1.484 1.484 0 00-.405-1.14 1.525 1.525 0 00-1.114-.49h-3.044a1.527 1.527 0 00-1.114.49 1.476 1.476 0 00-.407 1.12z" transform="translate(-696 -1578)" fill="#b9cfdd" fill-rule="evenodd"/></svg>