<svg xmlns="http://www.w3.org/2000/svg" width="189.776" height="112.169"><path data-name="Path 3892" d="M0 49.677c4.047-7.347 5.158-8 15.412-8.7-1.459-13.637 1.046-24.5 19.154-21.4 0-3.116-.071-5.606.014-8.09.19-5.573 3.406-10.118 8.694-10.876A49.089 49.089 0 0157.043.598c5.452.784 8.688 5.367 8.763 11.249.1 7.726.026 15.454.027 23.181v4.312h58.11V14.931c0-11.093 3.807-14.9 14.905-14.9 1.826 0 3.661-.1 5.477.044A11.427 11.427 0 01155.2 11.349c.064 1.254.009 2.513.009 4.342 6.158.481 13.951-1.764 16.931 5.237 2.358 5.539 2.26 12.125 3.315 18.622 6.709-.648 12 2.01 14.321 9.282v13.5c-2.83 6.367-7.586 9.467-15.478 8.262 1.539 14.065-.965 24.918-19.083 21.835 0 2.4.024 4.179-.007 5.956a24.593 24.593 0 01-.2 4.194c-1.441 7.49-7.926 10.473-20.191 9.371a11.436 11.436 0 01-10.842-11.736c-.107-8.283-.019-16.569-.036-24.853 0-1.366-.118-2.731-.191-4.3h-57.91v21.434c0 2.528.053 5.057-.013 7.583-.186 7.144-4.772 11.691-11.985 11.89-2.244.062-4.493.039-6.739.007-7.94-.112-12.343-4.55-12.538-12.6-.02-.837-.086-1.673-.159-3.063-6.018-.447-13.8 1.758-16.777-5.244-2.357-5.536-2.249-12.12-3.3-18.6-6.72.643-12.009-2.015-14.326-9.283zm59.138 6.546q0-21.5-.011-43c-.011-5.055-1.473-6.468-6.506-6.541-1.264-.018-2.529-.007-3.793 0-6.474.018-7.6 1.123-7.607 7.577q-.014 40.045 0 80.092c0 11.063 0 11.063 10.961 10.973 5.608-.046 6.945-1.344 6.953-6.948q.028-21.079.003-42.153zm71.5-.4q0 21.288.007 42.576c.008 5.579 1.357 6.88 6.973 6.921 1.124.008 2.249.005 3.372 0 6.442-.019 7.564-1.129 7.566-7.621q.014-40.047 0-80.093c0-11.023 0-11.023-11.009-10.927-5.595.049-6.9 1.333-6.906 6.989q-.027 21.08-.002 42.157zm-64.589-9.318v17.368h57.606V46.506zm89.366 39.491h7c3.43-.007 5.3-1.814 5.311-5.158q.087-26.734 0-53.469c-.008-2.961-1.705-4.727-4.676-4.915-2.469-.157-4.955-.032-7.628-.032zm-121.052-60h-4.067c-7.374-.025-8.278.857-8.278 8.125v45.892c0 9.124.761 9.879 9.774 9.645.8-.021 1.6-.181 2.573-.3zm140.449 20.459v17.508c7.176.449 8.219-.518 8.236-7.288v-2.933c-.016-6.691-1.056-7.645-8.235-7.281zM14.967 65.547V48.039c-7.189-.459-8.222.5-8.24 7.272v2.934c.016 6.696 1.061 7.661 8.24 7.302z" fill="#b6b8bd"/></svg>