<svg width="61" height="60" viewBox="0 0 61 60" fill="none" xmlns="http://www.w3.org/2000/svg">
<g clip-path="url(#clip0_10_3058)">
<path opacity="0.2" d="M48 10H28C24.0218 10 20.2064 11.5804 17.3934 14.3934C14.5804 17.2064 13 21.0217 13 25V50H48C50.6522 50 53.1957 48.9464 55.0711 47.0711C56.9464 45.1957 58 42.6522 58 40V20C58 17.3478 56.9464 14.8043 55.0711 12.9289C53.1957 11.0536 50.6522 10 48 10Z" fill="#BD00FF"/>
<path d="M53 20C53 19.337 52.7366 18.7011 52.2678 18.2322C51.7989 17.7634 51.163 17.5 50.5 17.5H38C35.3486 17.5026 32.8066 18.557 30.9318 20.4318C29.057 22.3066 28.0026 24.8486 28 27.5V32.5C28.0026 35.1514 29.057 37.6934 30.9318 39.5682C32.8066 41.443 35.3486 42.4974 38 42.5H50.5C51.163 42.5 51.7989 42.2366 52.2678 41.7678C52.7366 41.2989 53 40.663 53 40C53 39.3369 52.7366 38.7011 52.2678 38.2322C51.7989 37.7634 51.163 37.5 50.5 37.5H38C36.6745 37.4982 35.4037 36.9708 34.4664 36.0336C33.5291 35.0963 33.0018 33.8255 33 32.5V27.5C33.0018 26.1745 33.5291 24.9037 34.4664 23.9664C35.4037 23.0291 36.6745 22.5018 38 22.5H50.5C51.163 22.5 51.7989 22.2366 52.2678 21.7678C52.7366 21.2989 53 20.663 53 20Z" fill="url(#paint0_linear_10_3058)"/>
<path d="M40.5 27.5C39.837 27.5 39.2011 27.7634 38.7322 28.2322C38.2634 28.7011 38 29.337 38 30C38 30.663 38.2634 31.2989 38.7322 31.7678C39.2011 32.2366 39.837 32.5 40.5 32.5H45.5C46.1631 32.5 46.7989 32.2366 47.2678 31.7678C47.7366 31.2989 48 30.663 48 30C48 29.337 47.7366 28.7011 47.2678 28.2322C46.7989 27.7634 46.1631 27.5 45.5 27.5H40.5Z" fill="url(#paint1_linear_10_3058)"/>
<path d="M48 7.5H13C9.68599 7.5039 6.50884 8.82212 4.16548 11.1655C1.82212 13.5088 0.503904 16.686 0.5 20L0.5 40C0.503904 43.314 1.82212 46.4912 4.16548 48.8345C6.50884 51.1779 9.68599 52.4961 13 52.5H48C51.314 52.4961 54.4912 51.1779 56.8345 48.8345C59.1779 46.4912 60.4961 43.314 60.5 40V20C60.4961 16.686 59.1779 13.5088 56.8345 11.1655C54.4912 8.82212 51.314 7.5039 48 7.5ZM5.5 40V20C5.50218 18.0115 6.29306 16.1052 7.69911 14.6991C9.10516 13.2931 11.0115 12.5022 13 12.5H15.7767C14.1066 14.1253 12.7792 16.0688 11.8729 18.2158C10.9666 20.3627 10.4998 22.6696 10.5 25V47.0392C9.04184 46.5257 7.7784 45.5733 6.88316 44.3129C5.98791 43.0525 5.50475 41.546 5.5 40ZM55.5 40C55.4978 41.9884 54.7069 43.8948 53.3009 45.3009C51.8948 46.7069 49.9884 47.4978 48 47.5H15.5V25C15.5039 21.686 16.8221 18.5088 19.1655 16.1655C21.5088 13.8221 24.686 12.5039 28 12.5H48C49.9884 12.5022 51.8948 13.2931 53.3009 14.6991C54.7069 16.1052 55.4978 18.0115 55.5 20V40Z" fill="url(#paint2_linear_10_3058)"/>
</g>
<defs>
<linearGradient id="paint0_linear_10_3058" x1="44.2556" y1="17.5" x2="60.7308" y2="32.886" gradientUnits="userSpaceOnUse">
<stop stop-color="#E551C2"/>
<stop offset="0.796875" stop-color="#45A7F6"/>
</linearGradient>
<linearGradient id="paint1_linear_10_3058" x1="44.5023" y1="27.5" x2="47.2509" y2="32.6339" gradientUnits="userSpaceOnUse">
<stop stop-color="#E551C2"/>
<stop offset="0.796875" stop-color="#45A7F6"/>
</linearGradient>
<linearGradient id="paint2_linear_10_3058" x1="39.5134" y1="7.5" x2="68.5377" y2="43.6404" gradientUnits="userSpaceOnUse">
<stop stop-color="#E551C2"/>
<stop offset="0.796875" stop-color="#45A7F6"/>
</linearGradient>
<clipPath id="clip0_10_3058">
<rect width="60" height="60" fill="white" transform="translate(0.5)"/>
</clipPath>
</defs>
</svg>
