<svg width="60" height="60" viewBox="0 0 60 60" fill="none" xmlns="http://www.w3.org/2000/svg">
<g clip-path="url(#clip0_10_3073)">
<path opacity="0.2" d="M10 5H5C3.61929 5 2.5 6.11929 2.5 7.5V12.5C2.5 13.8807 3.61929 15 5 15H10C11.3807 15 12.5 13.8807 12.5 12.5V7.5C12.5 6.11929 11.3807 5 10 5Z" fill="#BD00FF"/>
<path opacity="0.2" d="M10 45H5C3.61929 45 2.5 46.1193 2.5 47.5V52.5C2.5 53.8807 3.61929 55 5 55H10C11.3807 55 12.5 53.8807 12.5 52.5V47.5C12.5 46.1193 11.3807 45 10 45Z" fill="#BD00FF"/>
<path opacity="0.2" d="M55 45H50C48.6193 45 47.5 46.1193 47.5 47.5V52.5C47.5 53.8807 48.6193 55 50 55H55C56.3807 55 57.5 53.8807 57.5 52.5V47.5C57.5 46.1193 56.3807 45 55 45Z" fill="#BD00FF"/>
<path opacity="0.2" d="M55 5H50C48.6193 5 47.5 6.11929 47.5 7.5V12.5C47.5 13.8807 48.6193 15 50 15H55C56.3807 15 57.5 13.8807 57.5 12.5V7.5C57.5 6.11929 56.3807 5 55 5Z" fill="#BD00FF"/>
<path d="M60 12.5V7.5C59.9985 6.17439 59.4712 4.9035 58.5338 3.96615C57.5965 3.0288 56.3256 2.50152 55 2.5H50C48.6744 2.50152 47.4035 3.0288 46.4661 3.96615C45.5288 4.9035 45.0015 6.17439 45 7.5H15C14.9985 6.17439 14.4712 4.9035 13.5339 3.96615C12.5965 3.0288 11.3256 2.50152 10 2.5H5C3.67438 2.50152 2.4035 3.0288 1.46615 3.96615C0.528795 4.9035 0.00152183 6.17439 0 7.5L0 12.5C0.00152183 13.8256 0.528795 15.0965 1.46615 16.0339C2.4035 16.9712 3.67438 17.4985 5 17.5V42.5C3.67438 42.5015 2.4035 43.0288 1.46615 43.9662C0.528795 44.9035 0.00152183 46.1744 0 47.5L0 52.5C0.00152183 53.8256 0.528795 55.0965 1.46615 56.0339C2.4035 56.9712 3.67438 57.4985 5 57.5H10C11.3256 57.4985 12.5965 56.9712 13.5339 56.0339C14.4712 55.0965 14.9985 53.8256 15 52.5H45C45.0015 53.8256 45.5288 55.0965 46.4661 56.0339C47.4035 56.9712 48.6744 57.4985 50 57.5H55C56.3256 57.4985 57.5965 56.9712 58.5338 56.0339C59.4712 55.0965 59.9985 53.8256 60 52.5V47.5C59.9985 46.1744 59.4712 44.9035 58.5338 43.9662C57.5965 43.0288 56.3256 42.5015 55 42.5V17.5C56.3256 17.4985 57.5965 16.9712 58.5338 16.0339C59.4712 15.0965 59.9985 13.8256 60 12.5ZM50 7.5H55L55.0037 12.5H50V7.5ZM5 7.5H10L10.0037 12.5H5V7.5ZM5 52.5V47.5H10L10.0037 52.5H5ZM55.0037 52.5H50V47.5H55L55.0037 52.5ZM50 42.5C48.6744 42.5015 47.4035 43.0288 46.4661 43.9662C45.5288 44.9035 45.0015 46.1744 45 47.5H15C14.9985 46.1744 14.4712 44.9035 13.5339 43.9662C12.5965 43.0288 11.3256 42.5015 10 42.5V17.5C11.3256 17.4985 12.5965 16.9712 13.5339 16.0339C14.4712 15.0965 14.9985 13.8256 15 12.5H45C45.0015 13.8256 45.5288 15.0965 46.4661 16.0339C47.4035 16.9712 48.6744 17.4985 50 17.5V42.5Z" fill="url(#paint0_linear_10_3073)"/>
<path opacity="0.3" d="M35 27.5H32.5V25C32.5 24.337 32.2366 23.7011 31.7678 23.2322C31.2989 22.7634 30.663 22.5 30 22.5C29.337 22.5 28.7011 22.7634 28.2322 23.2322C27.7634 23.7011 27.5 24.337 27.5 25V27.5H25C24.337 27.5 23.7011 27.7634 23.2322 28.2322C22.7634 28.7011 22.5 29.337 22.5 30C22.5 30.663 22.7634 31.2989 23.2322 31.7678C23.7011 32.2366 24.337 32.5 25 32.5H27.5V35C27.5 35.663 27.7634 36.2989 28.2322 36.7678C28.7011 37.2366 29.337 37.5 30 37.5C30.663 37.5 31.2989 37.2366 31.7678 36.7678C32.2366 36.2989 32.5 35.663 32.5 35V32.5H35C35.663 32.5 36.2989 32.2366 36.7678 31.7678C37.2366 31.2989 37.5 30.663 37.5 30C37.5 29.337 37.2366 28.7011 36.7678 28.2322C36.2989 27.7634 35.663 27.5 35 27.5Z" fill="#BD00FF"/>
</g>
<defs>
<linearGradient id="paint0_linear_10_3073" x1="39.0134" y1="2.5" x2="75.3375" y2="39.5063" gradientUnits="userSpaceOnUse">
<stop stop-color="#E551C2"/>
<stop offset="0.796875" stop-color="#45A7F6"/>
</linearGradient>
<clipPath id="clip0_10_3073">
<rect width="60" height="60" fill="white"/>
</clipPath>
</defs>
</svg>
