<svg width="60" height="60" viewBox="0 0 60 60" fill="none" xmlns="http://www.w3.org/2000/svg">
<g clip-path="url(#clip0_10_3086)">
<g opacity="0.2">
<path d="M47.5 12.5H12.5C6.97715 12.5 2.5 16.9772 2.5 22.5V42.5C2.5 48.0229 6.97715 52.5 12.5 52.5H47.5C53.0229 52.5 57.5 48.0229 57.5 42.5V22.5C57.5 16.9772 53.0229 12.5 47.5 12.5Z" fill="#BD00FF"/>
</g>
<path d="M47.5 10H45V7.5C45 6.83696 44.7366 6.20107 44.2678 5.73223C43.7989 5.26339 43.163 5 42.5 5C41.837 5 41.2011 5.26339 40.7322 5.73223C40.2634 6.20107 40 6.83696 40 7.5V10H32.5V7.5C32.5 6.83696 32.2366 6.20107 31.7678 5.73223C31.2989 5.26339 30.663 5 30 5C29.337 5 28.7011 5.26339 28.2322 5.73223C27.7634 6.20107 27.5 6.83696 27.5 7.5V10H20V7.5C20 6.83696 19.7366 6.20107 19.2678 5.73223C18.7989 5.26339 18.163 5 17.5 5C16.837 5 16.2011 5.26339 15.7322 5.73223C15.2634 6.20107 15 6.83696 15 7.5V10H12.5C9.18599 10.0039 6.00883 11.3221 3.66548 13.6655C1.32212 16.0088 0.00390362 19.186 0 22.5L0 42.5C0.00390362 45.814 1.32212 48.9912 3.66548 51.3345C6.00883 53.6779 9.18599 54.9961 12.5 55H47.5C50.814 54.9961 53.9912 53.6779 56.3345 51.3345C58.6779 48.9912 59.9961 45.814 60 42.5V22.5C59.9961 19.186 58.6779 16.0088 56.3345 13.6655C53.9912 11.3221 50.814 10.0039 47.5 10ZM55 42.5C54.9978 44.4884 54.2069 46.3948 52.8009 47.8009C51.3948 49.2069 49.4884 49.9978 47.5 50H12.5C10.5115 49.9978 8.60516 49.2069 7.19911 47.8009C5.79306 46.3948 5.00218 44.4884 5 42.5V22.5C5.00218 20.5115 5.79306 18.6052 7.19911 17.1991C8.60516 15.7931 10.5115 15.0022 12.5 15H47.5C49.4884 15.0022 51.3948 15.7931 52.8009 17.1991C54.2069 18.6052 54.9978 20.5115 55 22.5V42.5Z" fill="url(#paint0_linear_10_3086)"/>
<path d="M38.233 23.2325L26.7667 34.6973C26.2915 35.1532 25.6584 35.4078 24.9998 35.4078C24.3413 35.4078 23.7082 35.1532 23.2329 34.6973L21.7679 33.2325C21.5373 32.9938 21.2615 32.8033 20.9565 32.6723C20.6514 32.5413 20.3234 32.4723 19.9915 32.4694C19.6595 32.4665 19.3303 32.5298 19.0231 32.6555C18.7158 32.7812 18.4367 32.9668 18.202 33.2016C17.9672 33.4363 17.7816 33.7154 17.6559 34.0227C17.5302 34.3299 17.4669 34.6591 17.4698 34.991C17.4727 35.323 17.5417 35.651 17.6727 35.956C17.8037 36.2611 17.9942 36.5369 18.2329 36.7675L19.6964 38.2325C20.3929 38.929 21.2197 39.4815 22.1296 39.8584C23.0396 40.2353 24.0149 40.4293 24.9998 40.4293C25.9848 40.4293 26.96 40.2353 27.87 39.8584C28.78 39.4815 29.6068 38.929 30.3032 38.2325L41.768 26.7675C42.2233 26.296 42.4753 25.6645 42.4696 25.009C42.4639 24.3535 42.201 23.7265 41.7375 23.263C41.274 22.7995 40.6469 22.5366 39.9915 22.5309C39.336 22.5252 38.7045 22.7771 38.233 23.2325Z" fill="url(#paint1_linear_10_3086)"/>
</g>
<defs>
<linearGradient id="paint0_linear_10_3086" x1="39.0134" y1="5" x2="71.8279" y2="41.7739" gradientUnits="userSpaceOnUse">
<stop stop-color="#E551C2"/>
<stop offset="0.796875" stop-color="#45A7F6"/>
</linearGradient>
<linearGradient id="paint1_linear_10_3086" x1="33.7253" y1="22.5308" x2="45.1427" y2="37.4237" gradientUnits="userSpaceOnUse">
<stop stop-color="#E551C2"/>
<stop offset="0.796875" stop-color="#45A7F6"/>
</linearGradient>
<clipPath id="clip0_10_3086">
<rect width="60" height="60" fill="white"/>
</clipPath>
</defs>
</svg>
