<svg xmlns="http://www.w3.org/2000/svg" width="24.36" height="24.36"><g data-name="Group 1285"><g data-name="Group 1284"><path data-name="Path 1209" d="M.2 7.16V17.2a6.968 6.968 0 006.96 6.96H17.2a6.968 6.968 0 006.96-6.96V7.16A6.968 6.968 0 0017.2.2H7.16A6.968 6.968 0 00.2 7.16zm17-5.088a5.094 5.094 0 015.088 5.088V17.2a5.094 5.094 0 01-5.088 5.088H7.16A5.094 5.094 0 012.072 17.2V7.16A5.094 5.094 0 017.16 2.072z" fill="#181818" stroke="#000" stroke-width=".4"/></g></g><g data-name="Group 1287"><g data-name="Group 1286"><path data-name="Path 1210" d="M5.722 12.18a6.458 6.458 0 106.458-6.458 6.465 6.465 0 00-6.458 6.458zm11.044 0a4.586 4.586 0 11-4.586-4.586 4.591 4.591 0 014.586 4.586z" fill="#181818" stroke="#000" stroke-width=".4"/></g></g><g data-name="Group 1289"><g data-name="Group 1288"><circle data-name="Ellipse 91" cx=".936" cy=".936" fill="#181818" stroke="#000" stroke-width=".4" r=".936" transform="rotate(-90 5.629 .935)"/></g></g></svg>