<svg width="170" height="170" viewBox="0 0 170 170" fill="none" xmlns="http://www.w3.org/2000/svg">
<circle cx="85" cy="85" r="85" fill="#040006"/>
<circle cx="85" cy="85" r="84" stroke="white" stroke-opacity="0.2" stroke-width="2"/>
<g opacity="0.6">
<path d="M83.5736 13.7446C83.6311 14.5259 83.5126 15.2332 83.2181 15.8665C82.924 16.5074 82.4878 17.0189 81.9093 17.401C81.3238 17.7913 80.6464 18.0145 79.877 18.0708C78.9342 18.1397 78.1089 17.9508 77.4011 17.504C76.6932 17.0573 76.1946 16.414 75.9052 15.5741L78.0322 15.4186C78.215 15.7375 78.4598 15.9727 78.7667 16.124C79.0661 16.2758 79.4005 16.3382 79.7701 16.3112C80.366 16.2676 80.8335 16.0257 81.1726 15.5855C81.5118 15.1453 81.6559 14.5796 81.6049 13.8885C81.554 13.1973 81.3285 12.6587 80.9285 12.2725C80.5285 11.8863 80.0305 11.715 79.4346 11.7586C79.065 11.7856 78.7433 11.896 78.4694 12.0897C78.188 12.284 77.9803 12.5522 77.8462 12.8944L75.7192 13.0499C75.8824 12.1769 76.2813 11.4679 76.9161 10.923C77.5514 10.3857 78.3405 10.0825 79.2833 10.0136C80.0526 9.95733 80.7552 10.0759 81.3911 10.3693C82.02 10.6708 82.5266 11.1134 82.9108 11.6971C83.2951 12.2808 83.516 12.9633 83.5736 13.7446Z" fill="white"/>
<path d="M66.444 12.0049C67.1705 11.8247 67.8804 11.8272 68.5736 12.0124C69.2594 12.1995 69.857 12.5481 70.3664 13.0583C70.8704 13.5777 71.2164 14.2138 71.4046 14.9667C71.5928 15.7196 71.5856 16.4394 71.3832 17.1261C71.1734 17.8147 70.8096 18.4017 70.2919 18.8871C69.7668 19.3744 69.141 19.7082 68.4144 19.8883C67.6879 20.0685 66.9817 20.065 66.2959 19.878C65.6027 19.6928 65.0087 19.3433 64.514 18.8294C64.0119 18.3174 63.6668 17.6849 63.4786 16.932C63.2904 16.1791 63.2966 15.4556 63.4972 14.7616C63.6997 14.0749 64.0598 13.4888 64.5775 13.0033C65.0953 12.5178 65.7174 12.185 66.444 12.0049ZM66.8715 13.7153C66.255 13.8682 65.8145 14.1948 65.5499 14.6951C65.2779 15.1972 65.2259 15.7846 65.394 16.4571C65.5639 17.1368 65.8863 17.6314 66.3611 17.9406C66.8303 18.2589 67.3732 18.3417 67.9896 18.1888C68.6135 18.0341 69.0623 17.7094 69.3361 17.2145C69.6025 16.7215 69.6499 16.1315 69.4781 15.4444C69.3082 14.7646 68.9886 14.2655 68.5194 13.9471C68.0446 13.6379 67.4953 13.5606 66.8715 13.7153Z" fill="white"/>
<path d="M51.1834 17.5603L52.9589 16.7818L57.9076 19.9575L55.9283 15.4797L57.7038 14.7011L60.9126 21.9607L59.1372 22.7393L54.1793 19.5429L56.1677 24.0414L54.3923 24.8199L51.1834 17.5603Z" fill="white"/>
<path d="M40.1335 24.1965L41.7503 23.1289L47.1688 25.421L44.4545 21.3432L46.0713 20.2756L50.4719 26.8866L48.855 27.9543L43.424 25.6434L46.1509 29.7399L44.534 30.8076L40.1335 24.1965Z" fill="white"/>
<path d="M38.4838 33.7971L37.4009 32.6093L35.4776 34.3486L34.4709 33.2444L36.3943 31.505L35.2199 30.2168L33.0446 32.184L31.9999 31.0379L35.6113 27.7719L40.9647 33.6444L37.3532 36.9104L36.3085 35.7644L38.4838 33.7971Z" fill="white"/>
<path d="M31.6615 36.9624C32.2722 37.4561 32.7081 38.0268 32.9692 38.6746C33.2363 39.327 33.3112 39.994 33.1942 40.6755C33.0782 41.3676 32.7772 42.012 32.291 42.6085C31.6952 43.3396 30.9914 43.8087 30.1797 44.0159C29.3679 44.2231 28.5559 44.1438 27.7435 43.7781L29.0876 42.1288C29.446 42.2149 29.7857 42.1985 30.1067 42.0796C30.4228 41.9665 30.6977 41.7667 30.9313 41.4801C31.3078 41.0181 31.4514 40.5132 31.3619 39.9655C31.2725 39.4178 30.9577 38.9256 30.4175 38.4889C29.8773 38.0521 29.3289 37.8465 28.7724 37.872C28.2159 37.8974 27.7494 38.1412 27.3728 38.6032C27.1393 38.8898 26.9995 39.1988 26.9534 39.5303C26.9026 39.8675 26.9563 40.202 27.1146 40.5337L25.7705 42.183C25.2441 41.4664 24.9992 40.6911 25.0359 39.8573C25.0784 39.0282 25.3975 38.2481 25.9933 37.517C26.4795 36.9205 27.0477 36.4922 27.698 36.232C28.3494 35.9825 29.0202 35.9185 29.7103 36.0398C30.4004 36.1612 31.0508 36.4687 31.6615 36.9624Z" fill="white"/>
<path d="M24.6254 53.8885L23.2808 53.1122L24.339 51.294L18.7938 48.0923L19.7666 46.4207L25.3119 49.6223L26.3701 47.8041L27.7147 48.5804L24.6254 53.8885Z" fill="white"/>
<path d="M19.0808 68.1751L17.595 67.721L18.2139 65.7118L12.0863 63.8392L12.6553 61.992L18.7829 63.8646L19.4019 61.8555L20.8877 62.3095L19.0808 68.1751Z" fill="white"/>
<path d="M9.68204 74.4416C9.78742 73.7033 10.0565 73.049 10.4893 72.4788C10.921 71.916 11.4699 71.4954 12.136 71.2169C12.8086 70.9469 13.5305 70.8665 14.3017 70.9757C15.073 71.0849 15.74 71.3619 16.3029 71.8068C16.8647 72.2592 17.2742 72.8155 17.5314 73.4758C17.7875 74.1436 17.8628 74.8466 17.7575 75.585C17.6521 76.3233 17.3835 76.9738 16.9518 77.5366C16.5191 78.1068 15.9707 78.5237 15.3066 78.7873C14.6416 79.0584 13.9234 79.1393 13.1522 79.0301C12.381 78.9209 11.7102 78.6433 11.1398 78.1973C10.5769 77.7524 10.1669 77.1998 9.90971 76.5395C9.65256 75.8792 9.57667 75.1799 9.68204 74.4416ZM11.4341 74.6897C11.3447 75.3161 11.4831 75.8455 11.8492 76.2777C12.2142 76.7174 12.7411 76.9861 13.43 77.0836C14.1263 77.1822 14.7076 77.0705 15.1737 76.7484C15.6462 76.4349 15.9272 75.9649 16.0166 75.3385C16.1071 74.7046 15.9735 74.1683 15.616 73.7296C15.2574 73.2984 14.7262 73.033 14.0223 72.9334C13.326 72.8348 12.7415 72.9422 12.269 73.2557C11.8029 73.5778 11.5246 74.0558 11.4341 74.6897Z" fill="white"/>
<path d="M18.021 97.8981L10.1188 98.8821L9.87812 96.9648L14.6172 96.3747L9.65718 95.2046L9.46298 93.6573L13.991 91.2944L9.24064 91.8859L9 89.9686L16.9022 88.9847L17.1865 91.2495L11.9929 94.1394L17.7381 95.6445L18.021 97.8981Z" fill="white"/>
<path d="M18.0468 104.082L16.5012 104.534L17.2331 107.017L15.7963 107.437L15.0644 104.954L13.3881 105.444L14.2159 108.252L12.7247 108.688L11.3504 104.027L18.9915 101.792L20.3659 106.454L18.8746 106.89L18.0468 104.082Z" fill="white"/>
<path d="M24.1034 115.474L22.6863 116.109L21.8199 114.193L15.9756 116.814L15.1791 115.053L21.0233 112.431L20.1569 110.515L21.574 109.879L24.1034 115.474Z" fill="white"/>
<path d="M23.0877 126.548L21.4716 124.063L20.0319 124.427L18.9278 122.729L27.1781 120.825L28.3995 122.703L23.2827 129.424L22.1662 127.708L23.0877 126.548ZM24.073 125.32L25.9832 122.916L23.0059 123.679L24.073 125.32Z" fill="white"/>
<path d="M38.1212 134.337L32.2962 139.746L30.9734 138.333L34.4667 135.089L29.7589 137.035L28.6913 135.895L30.9707 131.338L27.4691 134.589L26.1463 133.176L31.9713 127.767L33.5339 129.436L31.0252 134.809L36.5663 132.676L38.1212 134.337Z" fill="white"/>
<path d="M41.1113 145.087L38.7361 143.307L37.5097 144.141L35.887 142.925L42.9772 138.312L44.7722 139.657L42.2872 147.721L40.6464 146.492L41.1113 145.087ZM41.6126 143.596L42.5767 140.684L40.0443 142.421L41.6126 143.596Z" fill="white"/>
<path d="M48.7952 151.604C48.2823 151.33 47.8674 151.001 47.5505 150.617C47.2337 150.234 47.0398 149.814 46.9687 149.356C46.9044 148.903 46.9891 148.444 47.2228 147.979L49.0414 148.952C48.9284 149.225 48.9109 149.473 48.9889 149.694C49.0705 149.909 49.2346 150.082 49.4811 150.214C49.7342 150.35 49.9645 150.4 50.1719 150.366C50.3829 150.325 50.5439 150.202 50.6549 149.996C50.748 149.823 50.7651 149.649 50.706 149.472C50.6536 149.298 50.5605 149.129 50.4267 148.963C50.2996 148.801 50.1045 148.589 49.8416 148.329C49.4638 147.947 49.1693 147.61 48.958 147.317C48.7467 147.024 48.6113 146.687 48.5516 146.304C48.4919 145.922 48.5802 145.511 48.8165 145.073C49.1674 144.423 49.6778 144.042 50.3477 143.93C51.0212 143.812 51.7377 143.956 52.4971 144.363C53.2698 144.777 53.7924 145.296 54.0649 145.921C54.3409 146.539 54.3183 147.185 53.9972 147.86L52.1486 146.87C52.257 146.637 52.2686 146.417 52.1834 146.209C52.1018 145.994 51.9411 145.823 51.7013 145.694C51.4948 145.584 51.2978 145.551 51.1104 145.596C50.9265 145.634 50.7791 145.756 50.6681 145.962C50.5463 146.188 50.558 146.421 50.7032 146.661C50.8483 146.901 51.108 147.215 51.4822 147.604C51.8528 147.999 52.1404 148.341 52.345 148.63C52.5563 148.923 52.6935 149.257 52.7568 149.633C52.8201 150.009 52.739 150.406 52.5134 150.824C52.2985 151.222 52.0001 151.528 51.6182 151.743C51.2429 151.961 50.8101 152.063 50.3199 152.049C49.8297 152.034 49.3215 151.886 48.7952 151.604Z" fill="white"/>
<path d="M60.2809 156.499L58.9358 152.306L57.7582 155.606L55.9303 154.959L58.597 147.485L60.4249 148.132L59.2549 151.411L62.9262 149.017L65.0748 149.778L60.8605 152.411L62.515 157.29L60.2809 156.499Z" fill="white"/>
<path d="M76.2361 157.949C75.9278 157.916 75.6504 157.81 75.4037 157.631C75.1646 157.453 74.9838 157.229 74.8615 156.958C74.7399 156.68 74.696 156.387 74.7298 156.08C74.7643 155.765 74.8708 155.489 75.0492 155.251C75.2283 155.005 75.454 154.821 75.726 154.7C76.0056 154.579 76.2995 154.535 76.6078 154.568C76.9235 154.603 77.201 154.709 77.4401 154.887C77.6868 155.065 77.8709 155.293 77.9924 155.572C78.1148 155.843 78.1587 156.136 78.1241 156.45C78.0904 156.757 77.9839 157.034 77.8047 157.279C77.6264 157.517 77.3974 157.697 77.1178 157.818C76.8457 157.94 76.5518 157.984 76.2361 157.949Z" fill="white"/>
<path d="M89.5378 156.468C89.4373 155.691 89.5168 154.978 89.7761 154.33C90.0345 153.674 90.442 153.139 90.9986 152.726C91.5617 152.305 92.2259 152.045 92.991 151.947C93.9286 151.827 94.7631 151.97 95.4944 152.378C96.2257 152.785 96.7589 153.4 97.0941 154.223L94.9788 154.494C94.7788 154.186 94.5214 153.964 94.2066 153.83C93.8994 153.695 93.562 153.651 93.1944 153.698C92.6019 153.774 92.1484 154.041 91.8339 154.499C91.5195 154.957 91.4067 155.53 91.4956 156.217C91.5844 156.904 91.8392 157.43 92.2598 157.794C92.6805 158.157 93.1871 158.301 93.7797 158.225C94.1472 158.178 94.4624 158.05 94.7252 157.842C94.9956 157.633 95.1882 157.354 95.3033 157.005L97.4185 156.733C97.3036 157.614 96.9442 158.344 96.3404 158.922C95.7356 159.493 94.9643 159.839 94.0267 159.959C93.2616 160.058 92.5536 159.978 91.9025 159.719C91.258 159.452 90.7279 159.038 90.3121 158.476C89.8963 157.914 89.6382 157.245 89.5378 156.468Z" fill="white"/>
<path d="M106.737 157.271C106.022 157.491 105.313 157.527 104.61 157.38C103.915 157.231 103.299 156.915 102.763 156.433C102.231 155.942 101.85 155.326 101.621 154.585C101.392 153.843 101.359 153.124 101.524 152.427C101.695 151.728 102.026 151.122 102.517 150.609C103.014 150.094 103.621 149.727 104.336 149.507C105.052 149.288 105.757 149.253 106.452 149.402C107.155 149.549 107.767 149.866 108.289 150.352C108.819 150.836 109.198 151.448 109.427 152.19C109.656 152.931 109.69 153.654 109.528 154.358C109.363 155.055 109.036 155.66 108.546 156.173C108.056 156.686 107.453 157.052 106.737 157.271ZM106.216 155.587C106.823 155.401 107.245 155.05 107.482 154.536C107.726 154.02 107.746 153.431 107.541 152.769C107.334 152.099 106.985 151.623 106.494 151.34C106.008 151.048 105.461 150.995 104.854 151.181C104.239 151.369 103.809 151.718 103.563 152.227C103.324 152.734 103.309 153.326 103.518 154.003C103.725 154.672 104.072 155.153 104.558 155.445C105.049 155.728 105.602 155.775 106.216 155.587Z" fill="white"/>
<path d="M121.67 150.892L119.94 151.766L114.824 148.865L117.047 153.228L115.317 154.102L111.713 147.029L113.443 146.155L118.57 149.076L116.337 144.693L118.067 143.818L121.67 150.892Z" fill="white"/>
<path d="M132.338 143.663L130.783 144.817L125.246 142.824L128.181 146.748L126.625 147.902L121.868 141.541L123.423 140.386L128.973 142.398L126.025 138.456L127.581 137.302L132.338 143.663Z" fill="white"/>
<path d="M133.458 133.988L134.604 135.115L136.429 133.273L137.495 134.321L135.67 136.162L136.914 137.385L138.978 135.302L140.084 136.389L136.657 139.847L130.989 134.275L134.416 130.817L135.522 131.905L133.458 133.988Z" fill="white"/>
<path d="M140.096 130.454C139.459 129.995 138.992 129.448 138.696 128.816C138.394 128.179 138.282 127.517 138.361 126.83C138.439 126.133 138.704 125.473 139.157 124.851C139.712 124.088 140.389 123.582 141.188 123.331C141.987 123.079 142.802 123.114 143.633 123.435L142.382 125.155C142.019 125.089 141.681 125.124 141.367 125.26C141.058 125.39 140.794 125.605 140.577 125.904C140.226 126.385 140.111 126.897 140.23 127.439C140.349 127.981 140.691 128.456 141.254 128.862C141.818 129.269 142.376 129.444 142.931 129.388C143.485 129.333 143.937 129.064 144.288 128.582C144.505 128.283 144.628 127.967 144.656 127.634C144.688 127.294 144.616 126.963 144.44 126.64L145.691 124.92C146.256 125.607 146.543 126.368 146.553 127.202C146.556 128.033 146.28 128.829 145.725 129.591C145.272 130.214 144.729 130.672 144.094 130.967C143.457 131.252 142.791 131.353 142.095 131.269C141.399 131.186 140.733 130.914 140.096 130.454Z" fill="white"/>
<path d="M146.191 113.17L147.577 113.872L146.62 115.745L152.333 118.64L151.453 120.362L145.74 117.467L144.784 119.341L143.399 118.639L146.191 113.17Z" fill="white"/>
<path d="M150.942 98.6021L152.451 98.9744L151.943 101.014L158.165 102.55L157.698 104.425L151.477 102.89L150.969 104.93L149.461 104.557L150.942 98.6021Z" fill="white"/>
<path d="M159.982 91.833C159.918 92.576 159.685 93.2439 159.284 93.8369C158.884 94.4224 158.359 94.8723 157.709 95.1867C157.053 95.493 156.336 95.6126 155.56 95.5456C154.784 95.4787 154.103 95.2384 153.516 94.8249C152.931 94.4038 152.491 93.8706 152.198 93.2253C151.906 92.5726 151.792 91.8747 151.856 91.1317C151.921 90.3888 152.153 89.7245 152.553 89.1391C152.954 88.5461 153.479 88.0999 154.127 87.8005C154.777 87.4936 155.489 87.3736 156.265 87.4406C157.041 87.5076 157.726 87.7482 158.32 88.1624C158.907 88.5759 159.347 89.1053 159.64 89.7506C159.933 90.3959 160.047 91.09 159.982 91.833ZM158.219 91.6808C158.274 91.0505 158.107 90.5294 157.718 90.1178C157.329 89.6986 156.788 89.4592 156.095 89.3993C155.394 89.3389 154.82 89.4821 154.372 89.8291C153.918 90.1679 153.663 90.6525 153.608 91.2829C153.553 91.9208 153.715 92.449 154.097 92.8675C154.478 93.2785 155.023 93.5145 155.732 93.5757C156.432 93.6361 157.01 93.497 157.465 93.1581C157.912 92.8112 158.164 92.3187 158.219 91.6808Z" fill="white"/>
<path d="M150.366 68.8664L158.203 67.453L158.548 69.3543L153.849 70.2019L158.866 71.0998L159.145 72.6342L154.753 75.2405L159.464 74.3908L159.81 76.2921L151.973 77.7055L151.565 75.4596L156.592 72.2908L150.773 71.1012L150.366 68.8664Z" fill="white"/>
<path d="M150 62.6932L151.519 62.1576L150.652 59.7185L152.063 59.2206L152.93 61.6597L154.577 61.0787L153.596 58.3202L155.061 57.8034L156.69 62.3832L149.183 65.0313L147.554 60.4515L149.019 59.9347L150 62.6932Z" fill="white"/>
<path d="M143.327 51.648L144.707 50.9361L145.678 52.8022L151.369 49.866L152.261 51.5817L146.57 54.5179L147.54 56.3841L146.16 57.096L143.327 51.648Z" fill="white"/>
<path d="M143.733 40.5357L145.483 42.9283L146.901 42.4868L148.097 44.1214L139.963 46.4729L138.641 44.6647L143.38 37.6741L144.589 39.327L143.733 40.5357ZM142.817 41.8158L141.042 44.3203L143.973 43.3957L142.817 41.8158Z" fill="white"/>
<path d="M128.294 33.5776L133.813 27.8592L135.211 29.1982L131.901 32.6276L136.495 30.4276L137.624 31.5081L135.598 36.1829L138.916 32.7454L140.314 34.0844L134.795 39.8027L133.143 38.221L135.353 32.7195L129.937 35.1515L128.294 33.5776Z" fill="white"/>
<path d="M124.717 23.0074L127.186 24.6549L128.365 23.755L130.052 24.8805L123.226 29.8735L121.36 28.6285L123.398 20.4411L125.104 21.5793L124.717 23.0074ZM124.298 24.5233L123.496 27.483L125.929 25.6111L124.298 24.5233Z" fill="white"/>
<path d="M116.686 16.9182C117.214 17.1645 117.646 17.4704 117.984 17.8359C118.321 18.2015 118.538 18.6105 118.634 19.0631C118.723 19.5124 118.664 19.9755 118.456 20.4525L116.586 19.5795C116.684 19.3007 116.688 19.053 116.598 18.8362C116.505 18.6262 116.331 18.4621 116.078 18.3438C115.818 18.2223 115.585 18.1843 115.38 18.2299C115.171 18.2823 115.017 18.4142 114.918 18.6257C114.834 18.803 114.827 18.9784 114.896 19.1519C114.958 19.3222 115.06 19.4864 115.203 19.6446C115.338 19.7996 115.545 20 115.822 20.2457C116.22 20.6064 116.533 20.9271 116.76 21.2079C116.987 21.4886 117.14 21.8183 117.221 22.1971C117.302 22.5759 117.236 22.9903 117.024 23.4404C116.71 24.1088 116.221 24.5171 115.558 24.6651C114.892 24.82 114.169 24.7152 113.388 24.3507C112.594 23.9797 112.044 23.4897 111.737 22.8808C111.428 22.2786 111.415 21.6319 111.698 20.9407L113.598 21.8281C113.503 22.0664 113.503 22.2871 113.6 22.4903C113.693 22.7002 113.863 22.8627 114.11 22.9779C114.322 23.077 114.52 23.099 114.705 23.0438C114.887 22.9954 115.027 22.8655 115.127 22.6541C115.236 22.4222 115.211 22.1903 115.053 21.9584C114.895 21.7265 114.618 21.4268 114.223 21.0593C113.832 20.6849 113.526 20.359 113.305 20.0815C113.078 19.8008 112.923 19.4744 112.839 19.1025C112.755 18.7305 112.814 18.3297 113.017 17.9C113.209 17.4908 113.491 17.1687 113.86 16.9336C114.223 16.6954 114.649 16.5701 115.14 16.5578C115.63 16.5454 116.146 16.6656 116.686 16.9182Z" fill="white"/>
<path d="M104.949 12.6575L106.522 16.7713L107.517 13.4115L109.377 13.9578L107.125 21.5661L105.265 21.0198L106.253 17.6817L102.718 20.2722L100.531 19.63L104.595 16.7707L102.674 11.9897L104.949 12.6575Z" fill="white"/>
<path d="M92.4756 12.0121C92.7853 12.0289 93.0681 12.1196 93.3242 12.2844C93.5728 12.4487 93.7656 12.6628 93.9027 12.9268C94.0394 13.1982 94.0993 13.4881 94.0824 13.7965C94.0652 14.1124 93.9741 14.3941 93.8091 14.6417C93.6437 14.8968 93.4285 15.0926 93.1635 15.2291C92.891 15.3652 92.6 15.4249 92.2903 15.4082C91.9732 15.391 91.6903 15.3002 91.4417 15.1359C91.1856 14.9712 90.9893 14.7531 90.8526 14.4816C90.7155 14.2177 90.6556 13.9278 90.6728 13.6119C90.6897 13.3035 90.7808 13.0218 90.9462 12.7667C91.1112 12.5191 91.3299 12.3273 91.6024 12.1912C91.8674 12.0546 92.1585 11.995 92.4756 12.0121Z" fill="white"/>
</g>
<circle cx="85" cy="85" r="59" fill="#040006" stroke="url(#paint0_linear_10_3114)" stroke-width="2"/>
<path d="M110.223 57.7998L88.3613 74.0365L92.404 64.4571L110.223 57.7998Z" fill="#E2761B" stroke="#E2761B" stroke-linecap="round" stroke-linejoin="round"/>
<path d="M59.7549 57.7998L81.4404 74.1903L77.5954 64.4571L59.7549 57.7998Z" fill="#E4761B" stroke="#E4761B" stroke-linecap="round" stroke-linejoin="round"/>
<path d="M102.358 95.4365L96.5352 104.357L108.993 107.784L112.574 95.6343L102.358 95.4365Z" fill="#E4761B" stroke="#E4761B" stroke-linecap="round" stroke-linejoin="round"/>
<path d="M57.4482 95.6343L61.0076 107.784L73.4652 104.357L67.6428 95.4365L57.4482 95.6343Z" fill="#E4761B" stroke="#E4761B" stroke-linecap="round" stroke-linejoin="round"/>
<path d="M72.7625 80.3642L69.291 85.6153L81.6608 86.1646L81.2213 72.8721L72.7625 80.3642Z" fill="#E4761B" stroke="#E4761B" stroke-linecap="round" stroke-linejoin="round"/>
<path d="M97.2157 80.3642L88.6469 72.7183L88.3613 86.1646L100.709 85.6153L97.2157 80.3642Z" fill="#E4761B" stroke="#E4761B" stroke-linecap="round" stroke-linejoin="round"/>
<path d="M73.4648 104.357L80.8911 100.732L74.4755 95.7222L73.4648 104.357Z" fill="#E4761B" stroke="#E4761B" stroke-linecap="round" stroke-linejoin="round"/>
<path d="M89.0869 100.732L96.5351 104.357L95.5025 95.7222L89.0869 100.732Z" fill="#E4761B" stroke="#E4761B" stroke-linecap="round" stroke-linejoin="round"/>
<path d="M96.5342 104.357L89.0859 100.731L89.6792 105.587L89.6132 107.63L96.5342 104.357Z" fill="#D7C1B3" stroke="#D7C1B3" stroke-linecap="round" stroke-linejoin="round"/>
<path d="M73.4648 104.357L80.3857 107.63L80.3418 105.587L80.8911 100.731L73.4648 104.357Z" fill="#D7C1B3" stroke="#D7C1B3" stroke-linecap="round" stroke-linejoin="round"/>
<path d="M80.4957 92.5139L74.2998 90.6903L78.6721 88.6909L80.4957 92.5139Z" fill="#233447" stroke="#233447" stroke-linecap="round" stroke-linejoin="round"/>
<path d="M89.4824 92.5139L91.306 88.6909L95.7002 90.6903L89.4824 92.5139Z" fill="#233447" stroke="#233447" stroke-linecap="round" stroke-linejoin="round"/>
<path d="M73.4649 104.357L74.5195 95.4365L67.6426 95.6343L73.4649 104.357Z" fill="#CD6116" stroke="#CD6116" stroke-linecap="round" stroke-linejoin="round"/>
<path d="M95.4805 95.4365L96.5351 104.357L102.357 95.6343L95.4805 95.4365Z" fill="#CD6116" stroke="#CD6116" stroke-linecap="round" stroke-linejoin="round"/>
<path d="M100.709 85.6152L88.3613 86.1645L89.5038 92.5142L91.3274 88.6912L95.7216 90.6906L100.709 85.6152Z" fill="#CD6116" stroke="#CD6116" stroke-linecap="round" stroke-linejoin="round"/>
<path d="M74.2995 90.6906L78.6937 88.6912L80.4953 92.5142L81.6598 86.1645L69.29 85.6152L74.2995 90.6906Z" fill="#CD6116" stroke="#CD6116" stroke-linecap="round" stroke-linejoin="round"/>
<path d="M69.291 85.6152L74.4762 95.722L74.3004 90.6906L69.291 85.6152Z" fill="#E4751F" stroke="#E4751F" stroke-linecap="round" stroke-linejoin="round"/>
<path d="M95.7226 90.6906L95.5029 95.722L100.71 85.6152L95.7226 90.6906Z" fill="#E4751F" stroke="#E4751F" stroke-linecap="round" stroke-linejoin="round"/>
<path d="M81.6606 86.1646L80.4961 92.5142L81.9462 100.006L82.2758 90.1413L81.6606 86.1646Z" fill="#E4751F" stroke="#E4751F" stroke-linecap="round" stroke-linejoin="round"/>
<path d="M88.3618 86.1646L87.7686 90.1194L88.0322 100.006L89.5043 92.5142L88.3618 86.1646Z" fill="#E4751F" stroke="#E4751F" stroke-linecap="round" stroke-linejoin="round"/>
<path d="M89.5043 92.514L88.0322 100.006L89.0868 100.731L95.5024 95.7218L95.7221 90.6904L89.5043 92.514Z" fill="#F6851B" stroke="#F6851B" stroke-linecap="round" stroke-linejoin="round"/>
<path d="M74.2998 90.6904L74.4756 95.7218L80.8911 100.731L81.9458 100.006L80.4957 92.514L74.2998 90.6904Z" fill="#F6851B" stroke="#F6851B" stroke-linecap="round" stroke-linejoin="round"/>
<path d="M89.6136 107.63L89.6795 105.587L89.1303 105.103H80.8471L80.3418 105.587L80.3857 107.63L73.4648 104.356L75.8817 106.334L80.7812 109.739H89.1962L94.1177 106.334L96.5345 104.356L89.6136 107.63Z" fill="#C0AD9E" stroke="#C0AD9E" stroke-linecap="round" stroke-linejoin="round"/>
<path d="M89.0863 100.731L88.0317 100.006H81.9457L80.8911 100.731L80.3418 105.587L80.8471 105.104H89.1302L89.6795 105.587L89.0863 100.731Z" fill="#161616" stroke="#161616" stroke-linecap="round" stroke-linejoin="round"/>
<path d="M111.145 75.0911L113.012 66.1269L110.222 57.7998L89.0859 73.4872L97.2153 80.3641L108.706 83.7257L111.255 80.7596L110.156 79.9687L111.914 78.3648L110.552 77.3102L112.309 75.9699L111.145 75.0911Z" fill="#763D16" stroke="#763D16" stroke-linecap="round" stroke-linejoin="round"/>
<path d="M56.9863 66.1269L58.8539 75.0911L57.6674 75.9699L59.4251 77.3102L58.0849 78.3648L59.8426 79.9687L58.744 80.7596L61.2707 83.7257L72.7616 80.3641L80.8909 73.4872L59.7547 57.7998L56.9863 66.1269Z" fill="#763D16" stroke="#763D16" stroke-linecap="round" stroke-linejoin="round"/>
<path d="M108.707 83.7258L97.2157 80.3643L100.709 85.6154L95.502 95.7221L102.357 95.6342H112.574L108.707 83.7258Z" fill="#F6851B" stroke="#F6851B" stroke-linecap="round" stroke-linejoin="round"/>
<path d="M72.7621 80.3643L61.2712 83.7258L57.4482 95.6342H67.6428L74.4759 95.7221L69.2907 85.6154L72.7621 80.3643Z" fill="#F6851B" stroke="#F6851B" stroke-linecap="round" stroke-linejoin="round"/>
<path d="M88.3616 86.1645L89.0866 73.4872L92.4262 64.457H77.5957L80.8914 73.4872L81.6604 86.1645L81.924 90.1632L81.946 100.006H88.032L88.0759 90.1632L88.3616 86.1645Z" fill="#F6851B" stroke="#F6851B" stroke-linecap="round" stroke-linejoin="round"/>
<defs>
<linearGradient id="paint0_linear_10_3114" x1="103.027" y1="25" x2="182.108" y2="98.8527" gradientUnits="userSpaceOnUse">
<stop stop-color="#E551C2"/>
<stop offset="0.796875" stop-color="#45A7F6"/>
</linearGradient>
</defs>
</svg>
