<svg width="223" height="122" viewBox="0 0 223 122" fill="none" xmlns="http://www.w3.org/2000/svg">
<g clip-path="url(#clip0_60_822)">
<path d="M12.6208 64.3016C12.0757 64.2978 11.5541 64.0789 11.17 63.6927C10.7859 63.3065 10.5703 62.7843 10.5703 62.2399V45.4004C10.6321 40.0563 12.5599 34.9012 16.0211 30.8243C19.4824 26.7473 24.2601 24.0042 29.5303 23.0679L174.033 0.259571C175.088 0.0878675 176.156 0.00108388 177.225 5.82654e-05C179.75 -0.00619737 182.251 0.491332 184.581 1.46344C186.912 2.43554 189.024 3.86264 190.794 5.66094C192.564 7.45924 193.957 9.5925 194.89 11.9355C195.823 14.2785 196.278 16.784 196.228 19.3049V36.1445C196.228 36.6913 196.01 37.2157 195.623 37.6023C195.236 37.9889 194.711 38.2062 194.163 38.2062C193.615 38.2062 193.09 37.9889 192.703 37.6023C192.316 37.2157 192.098 36.6913 192.098 36.1445V19.3049C192.142 17.3271 191.79 15.3604 191.063 13.5202C190.335 11.6801 189.247 10.0037 187.861 8.58945C186.475 7.17519 184.821 6.05161 182.994 5.28468C181.168 4.51775 179.206 4.12294 177.225 4.12343C176.388 4.12196 175.552 4.18947 174.727 4.32528L30.1657 27.1768C25.8647 27.9415 21.9655 30.1799 19.1399 33.5063C16.3143 36.8328 14.7391 41.0391 14.6858 45.4004V62.2399C14.6858 62.7867 14.4682 63.3111 14.081 63.6978C13.6937 64.0844 13.1685 64.3016 12.6208 64.3016Z" fill="#3D3A41"/>
<path d="M54.8729 121.395C54.3573 121.388 53.8627 121.19 53.4865 120.838C53.1102 120.486 52.8795 120.006 52.8397 119.492C52.7998 118.979 52.9538 118.47 53.2713 118.064C53.5888 117.658 54.0468 117.386 54.5552 117.3L182.986 96.9861C188.231 96.172 193.009 93.5072 196.453 89.4757C199.898 85.4441 201.78 80.313 201.759 75.014V57.1076C201.759 56.5608 201.976 56.0364 202.363 55.6498C202.751 55.2631 203.276 55.0459 203.824 55.0459C204.371 55.0459 204.896 55.2631 205.284 55.6498C205.671 56.0364 205.889 56.5608 205.889 57.1076V74.9707C205.923 81.2555 203.7 87.3444 199.623 92.1324C195.545 96.9204 189.883 100.09 183.665 101.066L55.2339 121.366L54.8729 121.395Z" fill="#3D3A41"/>
<path fill-rule="evenodd" clip-rule="evenodd" d="M53.6313 111.202L182.062 90.8299C185.846 90.2326 189.291 88.3072 191.779 85.4001C194.267 82.493 195.635 78.7948 195.636 74.9708V57.0932C195.633 54.7716 195.127 52.4782 194.152 50.3706C193.177 48.2631 191.756 46.3914 189.987 44.8844C188.218 43.3774 186.144 42.2707 183.906 41.6406C181.668 41.0105 179.32 40.8718 177.023 41.2341L48.5917 61.5482C44.8072 62.1451 41.36 64.0699 38.8694 66.9768C36.403 69.8554 35.0347 73.5102 35.0039 77.2959L9.93561 81.2558C9.42713 81.3414 8.96912 81.6138 8.65165 82.0195C8.33418 82.4251 8.18021 82.9347 8.22004 83.448C8.25986 83.9613 8.49059 84.4412 8.86686 84.7932C9.24312 85.1452 9.73768 85.344 10.2533 85.3503L10.5854 85.3215L35.0034 81.4643V85.0342L25.8048 86.5037C25.3419 86.6307 24.9378 86.9148 24.662 87.3071C24.3862 87.6993 24.2559 88.1753 24.2935 88.6531C24.3311 89.131 24.5342 89.5808 24.868 89.9252C25.2018 90.2697 25.6454 90.4873 26.1225 90.5405L26.4546 90.5694L35.0034 89.2159V95.3425C35.0083 97.6648 35.5166 99.9584 36.4935 102.066C37.4703 104.173 38.8925 106.045 40.6623 107.552C42.4322 109.058 44.5077 110.165 46.7464 110.795C48.9851 111.425 51.3338 111.564 53.6313 111.202ZM4.07243 84.2692C4.05972 84.8424 3.85074 85.3939 3.48027 85.832C3.10981 86.2701 2.60022 86.5683 2.03636 86.6769C1.78073 86.7252 1.51743 86.715 1.26633 86.647C1.01523 86.5789 0.782885 86.4548 0.586819 86.2841C0.390753 86.1133 0.236086 85.9003 0.134483 85.6612C0.0328812 85.422 -0.013003 85.163 0.000291855 84.9035C0.0129989 84.3303 0.221984 83.7787 0.592448 83.3407C0.962912 82.9026 1.4725 82.6044 2.03636 82.4958C2.29199 82.4475 2.55529 82.4577 2.80639 82.5257C3.05749 82.5938 3.28983 82.7178 3.4859 82.8886C3.68197 83.0594 3.83663 83.2724 3.93824 83.5115C4.03984 83.7507 4.08572 84.0097 4.07243 84.2692Z" fill="url(#paint0_linear_60_822)"/>
<path d="M180.503 55.9535C179.987 55.9471 179.493 55.7484 179.116 55.3964C178.74 55.0443 178.509 54.5645 178.47 54.0512C178.43 53.5379 178.584 53.0283 178.901 52.6226C179.219 52.2169 179.677 51.9445 180.185 51.859L220.618 45.4721C220.893 45.4108 221.178 45.4067 221.456 45.4599C221.733 45.5131 221.996 45.6224 222.23 45.7813C222.463 45.9401 222.661 46.145 222.812 46.3833C222.963 46.6216 223.063 46.8882 223.106 47.1667C223.15 47.4452 223.136 47.7297 223.065 48.0025C222.994 48.2753 222.868 48.5308 222.694 48.753C222.52 48.9752 222.303 49.1595 222.055 49.2945C221.807 49.4294 221.534 49.5122 221.253 49.5378L180.893 55.9247L180.503 55.9535Z" fill="#3D3A41"/>
<path d="M217.672 40.0514C217.659 40.6246 217.45 41.1762 217.08 41.6142C216.709 42.0523 216.2 42.3505 215.636 42.4591C215.38 42.5075 215.117 42.4972 214.866 42.4292C214.615 42.3611 214.382 42.2371 214.186 42.0663C213.99 41.8955 213.836 41.6825 213.734 41.4434C213.632 41.2042 213.587 40.9452 213.6 40.6857C213.615 40.1133 213.825 39.5631 214.195 39.1255C214.565 38.688 215.073 38.3891 215.636 38.278C215.892 38.2297 216.155 38.2399 216.406 38.3079C216.657 38.376 216.889 38.5001 217.085 38.6708C217.282 38.8416 217.436 39.0546 217.538 39.2937C217.639 39.5329 217.685 39.792 217.672 40.0514Z" fill="#3D3A41"/>
<path d="M196.271 45.4865C195.756 45.4802 195.261 45.2814 194.885 44.9294C194.509 44.5774 194.278 44.0975 194.238 43.5842C194.198 43.0709 194.352 42.5614 194.67 42.1557C194.987 41.75 195.445 41.4776 195.954 41.392L206.062 39.7917C206.584 39.7442 207.105 39.8972 207.519 40.2196C207.933 40.5419 208.208 41.0094 208.289 41.5271C208.37 42.0447 208.25 42.5737 207.955 43.0065C207.659 43.4394 207.209 43.7436 206.697 43.8574L196.589 45.4577C196.485 45.4803 196.378 45.49 196.271 45.4865Z" fill="#3D3A41"/>
<path d="M49.097 119.563C49.087 120.137 48.879 120.69 48.508 121.129C48.1371 121.567 47.626 121.865 47.061 121.971C46.8062 122.022 46.5432 122.014 46.2919 121.948C46.0407 121.882 45.808 121.759 45.6115 121.589C45.415 121.42 45.26 121.207 45.1583 120.969C45.0567 120.73 45.011 120.471 45.0249 120.212C45.0349 119.638 45.243 119.085 45.6139 118.646C45.9848 118.208 46.4959 117.91 47.061 117.804C47.3153 117.756 47.5773 117.766 47.8273 117.833C48.0773 117.901 48.3088 118.024 48.5046 118.193C48.7003 118.362 48.8553 118.573 48.9579 118.81C49.0605 119.048 49.1081 119.305 49.097 119.563Z" fill="#3D3A41"/>
<path d="M86.1233 26.5893L86.6478 30.252L79.0015 31.3469L79.5681 35.3038L85.2895 34.4845L85.7986 38.0403L80.0773 38.8595L81.1646 46.4524L76.5928 47.107L73.9053 28.3389L86.1233 26.5893Z" fill="white"/>
<path d="M100.785 43.6428L95.867 37.1169L94.7709 37.2738L95.7854 44.3587L91.2137 45.0134L88.5261 26.2452L96.1991 25.1464C97.6785 24.9346 98.9721 25.0131 100.08 25.3819C101.205 25.7482 102.092 26.3489 102.739 27.1839C103.383 28.001 103.785 28.9621 103.943 30.0672C104.122 31.3148 103.925 32.4799 103.352 33.5622C102.797 34.6421 101.863 35.4852 100.549 36.0917L105.945 42.9039L100.785 43.6428ZM94.3076 34.0389L97.1416 33.6331C97.9793 33.5131 98.5738 33.2188 98.925 32.7502C99.2941 32.279 99.425 31.6691 99.3178 30.9205C99.2157 30.2075 98.9214 29.6767 98.435 29.328C97.9663 28.9768 97.3131 28.8612 96.4754 28.9811L93.6415 29.3869L94.3076 34.0389Z" fill="white"/>
<path d="M111.063 26.7558L111.607 30.5522L117.729 29.6755L118.234 33.2046L112.112 34.0813L112.702 38.1985L119.626 37.2069L120.15 40.8697L108.654 42.5159L105.967 23.7477L117.463 22.1015L117.987 25.7642L111.063 26.7558Z" fill="white"/>
<path d="M125.527 24.6846L126.071 28.481L132.193 27.6043L132.699 31.1333L126.576 32.01L127.166 36.1273L134.09 35.1357L134.615 38.7984L123.118 40.4447L120.431 21.6765L131.927 20.0303L132.452 23.693L125.527 24.6846Z" fill="white"/>
<path d="M60.507 93.8234C59.0993 94.037 57.8031 94 56.6185 93.7122C55.4338 93.4244 54.4353 92.8839 53.6229 92.0907C52.8287 91.2948 52.3176 90.2689 52.0896 89.0129L57.0808 88.2553C57.2621 88.9572 57.5922 89.4683 58.071 89.7884C58.547 90.0902 59.1232 90.1898 59.7996 90.0871C60.4944 89.9816 61.0193 89.743 61.3743 89.3711C61.7266 88.981 61.8597 88.5025 61.7737 87.9358C61.7015 87.4604 61.4773 87.0923 61.1011 86.8315C60.7431 86.5678 60.3111 86.3716 59.8053 86.2426C59.3177 86.1109 58.6248 85.9822 57.7267 85.8567C56.4252 85.6615 55.3522 85.4316 54.5078 85.1669C53.6634 84.9023 52.9009 84.4382 52.2204 83.7747C51.5398 83.1111 51.108 82.176 50.9248 80.9694C50.6529 79.1777 51.0896 77.6805 52.235 76.478C53.3777 75.2571 54.9912 74.4885 57.0754 74.1722C59.1962 73.8503 60.9833 74.1027 62.4367 74.9295C63.8874 75.738 64.7959 77.0403 65.162 78.8364L60.0886 79.6065C59.9577 78.9904 59.6556 78.5406 59.1824 78.2571C58.7064 77.9553 58.1393 77.8543 57.4811 77.9542C56.9143 78.0402 56.4809 78.265 56.1807 78.6285C55.8777 78.9738 55.7692 79.4298 55.8553 79.9966C55.9496 80.6182 56.3157 81.0583 56.9534 81.3168C57.5912 81.5754 58.5622 81.8114 59.8665 82.0249C61.1735 82.2567 62.2401 82.5063 63.0663 82.7737C63.9107 83.0383 64.6718 83.4933 65.3496 84.1385C66.0273 84.7838 66.4536 85.6824 66.6284 86.8342C66.7949 87.9311 66.6628 88.9705 66.232 89.9524C65.8195 90.9315 65.1233 91.7666 64.1434 92.4578C63.1635 93.1489 61.9514 93.6041 60.507 93.8234Z" fill="white"/>
<path d="M84.136 70.3453L87.0581 89.5969L82.3686 90.3087L81.1656 82.3832L73.8709 83.4904L75.0738 91.4159L70.3844 92.1277L67.4622 72.8761L72.1517 72.1643L73.2964 79.7059L80.5912 78.5987L79.4465 71.0571L84.136 70.3453Z" fill="white"/>
<path d="M92.2108 69.1197L95.1329 88.3713L90.4435 89.0831L87.5213 69.8315L92.2108 69.1197Z" fill="white"/>
<path d="M111.222 72.5747C111.391 73.6899 111.291 74.7526 110.92 75.7627C110.547 76.7545 109.873 77.6143 108.899 78.342C107.924 79.0697 106.651 79.5529 105.079 79.7916L102.172 80.2328L103.221 87.1436L98.5314 87.8554L95.6093 68.6038L103.206 67.4508C104.741 67.2177 106.08 67.2858 107.221 67.655C108.361 68.0243 109.268 68.6349 109.939 69.4868C110.611 70.3387 111.039 71.368 111.222 72.5747ZM104.156 76.116C105.052 75.9801 105.687 75.6685 106.062 75.1814C106.437 74.6943 106.567 74.0668 106.45 73.299C106.333 72.5311 106.024 71.9702 105.521 71.6163C105.019 71.2624 104.319 71.1534 103.424 71.2894L100.873 71.6765L101.606 76.5031L104.156 76.116Z" fill="white"/>
<path d="M128.335 69.9771C128.504 71.0924 128.404 72.1551 128.033 73.1652C127.66 74.157 126.986 75.0168 126.012 75.7445C125.038 76.4722 123.764 76.9554 122.192 77.194L119.285 77.6353L120.334 84.5461L115.645 85.2579L112.722 66.0063L120.319 64.8533C121.855 64.6202 123.193 64.6882 124.334 65.0575C125.475 65.4267 126.381 66.0373 127.053 66.8893C127.724 67.7412 128.152 68.7705 128.335 69.9771ZM121.269 73.5185C122.165 73.3825 122.801 73.071 123.176 72.5839C123.551 72.0968 123.68 71.4693 123.563 70.7014C123.447 69.9336 123.137 69.3727 122.634 69.0188C122.132 68.6649 121.433 68.5559 120.537 68.6919L117.986 69.079L118.719 73.9056L121.269 73.5185Z" fill="white"/>
<path d="M134.525 62.697L137.447 81.9486L132.758 82.6604L129.836 63.4088L134.525 62.697Z" fill="white"/>
<path d="M158.068 78.8187L153.378 79.5305L143.733 68.8464L145.535 80.7209L140.846 81.4327L137.924 62.1811L142.613 61.4694L152.267 72.2083L150.456 60.2789L155.146 59.5671L158.068 78.8187Z" fill="white"/>
<path d="M172.249 63.1995C171.804 62.6123 171.228 62.2041 170.52 61.9749C169.827 61.7247 169.042 61.6662 168.164 61.7994C166.647 62.0297 165.508 62.717 164.746 63.8613C163.982 64.9873 163.726 66.3822 163.978 68.0459C164.248 69.8193 164.934 71.1366 166.037 71.9979C167.156 72.8381 168.556 73.1305 170.238 72.8752C171.39 72.7004 172.315 72.2608 173.012 71.5564C173.728 70.8493 174.185 69.9195 174.384 68.767L168.433 69.6703L167.909 66.2149L178.111 64.6664L178.772 69.0268C178.603 70.2496 178.174 71.4276 177.485 72.5608C176.815 73.6912 175.887 74.6644 174.702 75.4802C173.516 76.2961 172.119 76.8261 170.51 77.0703C168.609 77.3589 166.846 77.2057 165.222 76.6105C163.614 75.9943 162.277 75.0095 161.211 73.6563C160.163 72.3003 159.495 70.6716 159.207 68.7702C158.918 66.8688 159.073 65.1152 159.671 63.5095C160.284 61.8826 161.269 60.5455 162.625 59.498C163.978 58.4322 165.605 57.755 167.507 57.4664C169.81 57.1167 171.833 57.3802 173.575 58.2568C175.334 59.1306 176.62 60.5159 177.432 62.4127L172.249 63.1995Z" fill="white"/>
</g>
<defs>
<linearGradient id="paint0_linear_60_822" x1="127.207" y1="41.0371" x2="158.381" y2="121.986" gradientUnits="userSpaceOnUse">
<stop stop-color="#E551C2"/>
<stop offset="0.796875" stop-color="#45A7F6"/>
</linearGradient>
<clipPath id="clip0_60_822">
<rect width="223" height="122" fill="white"/>
</clipPath>
</defs>
</svg>
