<svg width="24" height="26" viewBox="0 0 24 26" fill="none" xmlns="http://www.w3.org/2000/svg">
<path d="M23.2762 25.1454L21.3001 6.32721C21.2586 5.93326 20.9266 5.63413 20.5305 5.63413H16.8163V4.78731C16.8163 2.14769 14.6686 0 12.029 0C9.38915 0 7.24146 2.14769 7.24146 4.78731V5.63413H3.5273C3.13117 5.63413 2.7991 5.93326 2.75765 6.32721L0.781545 25.1454C0.758733 25.3634 0.829549 25.581 0.97614 25.7441C1.12293 25.9069 1.332 25.9999 1.5512 25.9999H22.5064C22.7257 25.9999 22.9348 25.9069 23.0814 25.7441C23.2284 25.581 23.299 25.3634 23.2762 25.1454ZM8.7891 4.78731C8.7891 3.00105 10.2425 1.54763 12.029 1.54763C13.8152 1.54763 15.2687 3.00105 15.2687 4.78731V5.63413H8.7891V4.78731ZM2.41051 24.4523L4.22415 7.18176H7.24146V8.8871C7.24146 9.31437 7.588 9.66091 8.01528 9.66091C8.44256 9.66091 8.7891 9.31437 8.7891 8.8871V7.18176H15.2687V8.8871C15.2687 9.31437 15.6152 9.66091 16.0425 9.66091C16.4697 9.66091 16.8163 9.31437 16.8163 8.8871V7.18176H19.8336L21.6472 24.4523H2.41051Z" fill="black"/>
</svg>
