<svg width="24" height="20" viewBox="0 0 24 20" fill="none" xmlns="http://www.w3.org/2000/svg">
<path d="M20.3171 2.07501C18.7874 1.34604 17.1471 0.808936 15.4319 0.501291C15.4007 0.495351 15.3695 0.5102 15.3534 0.53985C15.1424 0.92958 14.9088 1.43796 14.7451 1.83757C12.9005 1.55071 11.0652 1.55071 9.25837 1.83757C9.09468 1.4291 8.85252 0.92958 8.6406 0.53985C8.62452 0.511174 8.5933 0.496325 8.56209 0.501291C6.84796 0.807914 5.20762 1.34502 3.67696 2.07501C3.66369 2.08095 3.65235 2.09083 3.6448 2.10369C0.533426 6.93161 -0.318949 11.6409 0.099176 16.2917C0.101051 16.3145 0.113379 16.3362 0.130395 16.3501C2.18319 17.9159 4.17172 18.8664 6.12327 19.4965C6.15449 19.5064 6.18758 19.4946 6.20746 19.4679C6.66908 18.8131 7.0806 18.1227 7.43343 17.3966C7.45424 17.3541 7.43437 17.3036 7.3918 17.2868C6.73907 17.0297 6.11755 16.7161 5.51966 16.3601C5.47237 16.3314 5.46857 16.2611 5.51212 16.2275C5.63793 16.1296 5.76379 16.0277 5.88393 15.9248C5.90568 15.906 5.93596 15.9021 5.96151 15.9139C9.88926 17.7765 14.1415 17.7765 18.0229 15.9139C18.0485 15.901 18.0787 15.905 18.1014 15.9238C18.2216 16.0267 18.3474 16.1295 18.4742 16.2274C18.5177 16.2611 18.5148 16.3313 18.4676 16.36C17.8697 16.723 17.2482 17.0296 16.5945 17.2858C16.5519 17.3026 16.533 17.3541 16.5539 17.3966C16.9143 18.1216 17.3258 18.812 17.7789 19.4668C17.7978 19.4945 17.8319 19.5064 17.8631 19.4965C19.8241 18.8664 21.8126 17.9159 23.8654 16.3501C23.8834 16.3362 23.8948 16.3155 23.8966 16.2927C24.3971 10.9158 23.0585 6.24514 20.3482 2.10466C20.3416 2.09083 20.3303 2.08095 20.3171 2.07501ZM8.02007 13.4598C6.83755 13.4598 5.86316 12.3323 5.86316 10.9475C5.86316 9.56269 6.81862 8.43508 8.02007 8.43508C9.2309 8.43508 10.1959 9.57257 10.1769 10.9475C10.1769 12.3323 9.22143 13.4598 8.02007 13.4598ZM15.9948 13.4598C14.8123 13.4598 13.8379 12.3323 13.8379 10.9475C13.8379 9.56269 14.7934 8.43508 15.9948 8.43508C17.2057 8.43508 18.1706 9.57257 18.1517 10.9475C18.1517 12.3323 17.2057 13.4598 15.9948 13.4598Z" fill="white"/>
</svg>
