<svg width="24" height="20" viewBox="0 0 24 20" fill="none" xmlns="http://www.w3.org/2000/svg">
<path d="M23.9531 2.72536C23.3833 3.57774 22.6895 4.34015 21.8948 4.98738C21.7917 5.06947 21.7085 5.17385 21.6514 5.29269C21.5943 5.41154 21.5649 5.54177 21.5652 5.67364V5.75451C21.5561 7.4721 21.2412 9.17432 20.6353 10.7812C20.0111 12.4655 19.0842 14.021 17.9002 15.3708C16.3164 17.1786 14.2764 18.5268 11.9936 19.2742C10.4894 19.763 8.9169 20.0079 7.33551 19.9998C4.83108 19.9972 2.37177 19.3322 0.206494 18.0722C0.128961 18.028 0.0679925 17.9597 0.0329103 17.8776C-0.00217185 17.7955 -0.00943697 17.7042 0.0122251 17.6176C0.0341786 17.5319 0.0841613 17.4561 0.154193 17.4022C0.224225 17.3483 0.310267 17.3195 0.39858 17.3203H0.996666C2.90027 17.32 4.76033 16.75 6.33797 15.6834C5.39754 15.5295 4.51756 15.1193 3.79449 14.4979C3.07142 13.8764 2.53315 13.0677 2.23868 12.1603C2.22423 12.1156 2.22165 12.0678 2.2312 12.0218C2.24075 11.9758 2.2621 11.933 2.29315 11.8977C2.32419 11.8625 2.36387 11.8359 2.40828 11.8206C2.45269 11.8053 2.50031 11.8019 2.54645 11.8106C2.83428 11.8654 3.12659 11.8932 3.41957 11.8937H3.52871C2.61719 11.4743 1.84656 10.7995 1.31003 9.95084C0.773504 9.10219 0.494071 8.11605 0.505537 7.11172C0.506159 7.06461 0.518942 7.01845 0.542644 6.97774C0.566346 6.93704 0.60016 6.90316 0.640803 6.8794C0.681445 6.85565 0.727534 6.84282 0.77459 6.84217C0.821647 6.84152 0.868072 6.85306 0.909355 6.87568C1.27919 7.08247 1.67587 7.23693 2.08806 7.33465C1.27181 6.52666 0.746455 5.47029 0.594368 4.33117C0.44228 3.19205 0.672064 2.0346 1.24769 1.04032C1.26977 1.00367 1.3002 0.972792 1.3365 0.950193C1.3728 0.927595 1.41392 0.913924 1.45651 0.910299C1.49909 0.906675 1.54193 0.9132 1.58152 0.92934C1.6211 0.945481 1.65631 0.970779 1.68425 1.00316C2.82746 2.41814 4.24293 3.58874 5.84665 4.44548C7.45037 5.30222 9.20965 5.82763 11.0201 5.99054H11.0397C11.0665 5.98966 11.0929 5.98341 11.1173 5.97215C11.1417 5.96089 11.1635 5.94485 11.1816 5.92498C11.199 5.9051 11.212 5.88181 11.2199 5.8566C11.2278 5.83139 11.2304 5.8048 11.2274 5.77855C11.1598 5.14385 11.2012 4.50225 11.3497 3.88151C11.4798 3.33808 11.7012 2.82075 12.0045 2.35163C12.641 1.35071 13.6106 0.607501 14.7417 0.253524C15.2723 0.0869635 15.825 0.0014947 16.381 2.51976e-06C17.642 -0.00124245 18.86 0.458887 19.8058 1.29384C19.9263 1.40107 20.0812 1.46155 20.2424 1.46431C20.2955 1.46343 20.3482 1.45609 20.3995 1.44245C21.2888 1.21721 22.1408 0.864617 22.9294 0.395583C22.9769 0.368124 23.0315 0.355621 23.0862 0.359704C23.1409 0.363786 23.193 0.384264 23.2359 0.418469C23.2788 0.452674 23.3104 0.499019 23.3266 0.551464C23.3428 0.603908 23.3428 0.66002 23.3267 0.712485C23.0621 1.53967 22.5937 2.28679 21.9646 2.8849C22.532 2.74922 23.0858 2.56194 23.6192 2.32541C23.6729 2.30142 23.7331 2.29564 23.7904 2.30894C23.8478 2.32224 23.8992 2.3539 23.937 2.39913C23.9747 2.44435 23.9968 2.50066 23.9997 2.55953C24.0026 2.6184 23.9862 2.67662 23.9531 2.72536Z" fill="white"/>
</svg>
