<svg id="clock" xmlns="http://www.w3.org/2000/svg" width="15.327" height="15.327" viewBox="0 0 15.327 15.327">
  <g id="Group_1706" data-name="Group 1706">
    <path id="Path_3880" data-name="Path 3880" d="M7.663,0a7.663,7.663,0,1,0,7.663,7.663A7.672,7.672,0,0,0,7.663,0Zm0,13.652a5.988,5.988,0,1,1,5.988-5.988A5.995,5.995,0,0,1,7.663,13.652Z" fill="#fff"/>
    <path id="Path_3881" data-name="Path 3881" d="M258.087,143.116V139.9a.649.649,0,1,0-1.3,0v3.419c0,.01,0,.02,0,.03a.645.645,0,0,0,.187.491l2.418,2.418a.649.649,0,0,0,.918-.918Z" transform="translate(-249.761 -135.444)" fill="#fff"/>
  </g>
</svg>
