<svg xmlns="http://www.w3.org/2000/svg" width="14.783" height="11.615"><g data-name="Group 1703" fill="#fff"><path data-name="Path 3872" d="M13.463 11.616a1.263 1.263 0 00.865-.326L10.14 7.102l-.29.208q-.47.346-.763.54a4.7 4.7 0 01-.78.4 2.376 2.376 0 01-.908.2h-.016a2.375 2.375 0 01-.908-.2 4.689 4.689 0 01-.78-.4q-.293-.194-.763-.54l-.289-.21-4.189 4.19a1.264 1.264 0 00.865.326z"/><path data-name="Path 3873" d="M.833 4.463A4.374 4.374 0 010 3.745v6.372l3.692-3.692Q2.584 5.652.833 4.463z"/><path data-name="Path 3874" d="M13.958 4.463q-1.685 1.141-2.865 1.965l3.69 3.69V3.745a4.552 4.552 0 01-.825.718z"/><path data-name="Path 3875" d="M13.463 0H1.32a1.178 1.178 0 00-.978.429A1.664 1.664 0 000 1.501a1.928 1.928 0 00.454 1.127 4.093 4.093 0 00.965.953q.28.2 1.691 1.176l1.329.923.833.582.123.088.227.164q.268.194.445.314t.429.268a2.5 2.5 0 00.474.223 1.313 1.313 0 00.412.074h.016a1.313 1.313 0 00.412-.074 2.5 2.5 0 00.474-.223q.252-.149.429-.268t.445-.314l.227-.164.123-.088.835-.58 3.026-2.1a3.924 3.924 0 001.006-1.015 2.183 2.183 0 00.4-1.246 1.331 1.331 0 00-1.32-1.32z"/></g></svg>