<svg xmlns="http://www.w3.org/2000/svg" width="16.6" height="16.601"><g data-name="Group 1704" fill="#fff"><path data-name="Path 3876" d="M12.62 10.981a1.163 1.163 0 00-1.758 0c-.411.408-.822.815-1.226 1.23a.242.242 0 01-.339.062c-.266-.145-.549-.263-.8-.421a12.753 12.753 0 01-3.074-2.8 7.284 7.284 0 01-1.1-1.765.253.253 0 01.062-.325c.411-.4.812-.8 1.216-1.213a1.168 1.168 0 000-1.8c-.321-.325-.643-.643-.964-.967s-.66-.667-.995-.995a1.171 1.171 0 00-1.758 0c-.415.408-.812.826-1.233 1.226a2 2 0 00-.629 1.351 5.723 5.723 0 00.432 2.469 14.967 14.967 0 002.656 4.423 16.439 16.439 0 005.444 4.259 7.874 7.874 0 003.016.877 2.21 2.21 0 001.9-.722c.352-.394.75-.753 1.123-1.13a1.175 1.175 0 00.001-1.784q-.982-.992-1.974-1.975z"/><path data-name="Path 3877" d="M11.962 8.228l1.275-.218a5.722 5.722 0 00-4.841-4.694l-.18 1.282a4.422 4.422 0 013.745 3.631z"/><path data-name="Path 3878" d="M13.955 2.688A9.4 9.4 0 008.566 0l-.18 1.282a8.2 8.2 0 016.94 6.726l1.275-.218a9.468 9.468 0 00-2.646-5.102z"/></g></svg>