<svg xmlns="http://www.w3.org/2000/svg" width="30.61" height="25.658"><g data-name="001-twitter-logo-silhouette"><path d="M30.248 6.446a11.639 11.639 0 01-3.366.41 5.608 5.608 0 002.911-2.69 11.7 11.7 0 01-3.778.832 5.764 5.764 0 00-3.881-2.318 5.633 5.633 0 00-6.425 4.707 5.431 5.431 0 00-.03 1.274A16.352 16.352 0 014.84 1.275a5.4 5.4 0 00-1.152 2.658 5.516 5.516 0 001.865 4.932A5.826 5.826 0 013.09 7.812l-.01.067a5.6 5.6 0 003.782 6.037 5.928 5.928 0 01-1.512-.015 5.622 5.622 0 01-1.05-.249 5.693 5.693 0 004.735 4.556 11.649 11.649 0 01-7.349 1.366 12.454 12.454 0 01-1.338-.264 16.451 16.451 0 008.315 3.693A15.9 15.9 0 0026.941 9.61l.081-.715a11.236 11.236 0 003.226-2.449z" fill="#fff" data-name="Group 1280"/></g></svg>