<svg xmlns="http://www.w3.org/2000/svg" width="23.96" height="23.96"><g data-name="Group 1285"><g data-name="Group 1284"><path data-name="Path 1209" d="M0 6.96V17a6.968 6.968 0 006.96 6.96H17A6.968 6.968 0 0023.96 17V6.96A6.968 6.968 0 0017 0H6.96A6.968 6.968 0 000 6.96zm17-5.088a5.094 5.094 0 015.088 5.088V17A5.094 5.094 0 0117 22.088H6.96A5.094 5.094 0 011.872 17V6.96A5.094 5.094 0 016.96 1.872z" fill="#fff"/></g></g><g data-name="Group 1287"><g data-name="Group 1286"><path data-name="Path 1210" d="M5.522 11.98a6.458 6.458 0 106.458-6.458 6.465 6.465 0 00-6.458 6.458zm11.044 0a4.586 4.586 0 11-4.586-4.586 4.591 4.591 0 014.586 4.586z" fill="#fff"/></g></g><g data-name="Group 1289"><g data-name="Group 1288"><circle data-name="Ellipse 91" cx=".936" cy=".936" fill="#fff" r=".936" transform="rotate(-90 5.429 .935)"/></g></g></svg>