<?xml version="1.0"?>
<svg xmlns="http://www.w3.org/2000/svg" fill="#fff" viewBox="0 0 64 64" width="512" height="512">
     <g id="Outline">
          <g>
               <circle cx="7" cy="25" r="1"/>
               <circle cx="11" cy="25" r="1"/>
               <path d="M13,35a1,1,0,0,0,0-2H11a1,1,0,0,0,0,2Z"/>
               <path d="M6,39a1,1,0,0,0,1,1h6a1,1,0,0,0,0-2H7A1,1,0,0,0,6,39Z"/>
               <path d="M7,45h6a1,1,0,0,0,0-2H7a1,1,0,0,0,0,2Z"/>
               <path d="M47,55.56a1,1,0,0,0-1,1V60H4V30h9a1,1,0,0,0,0-2H4V22h9a1,1,0,0,0,0-2H3a1,1,0,0,0-1,1V61a1,1,0,0,0,1,1H47a1,1,0,0,0,1-1V56.56A1,1,0,0,0,47,55.56Z"/>
               <path d="M19,56a1,1,0,0,0,0,2h2a1,1,0,0,0,1-1V49a1,1,0,0,0-1-1H7a1,1,0,0,0-1,1v8a1,1,0,0,0,1,1h8a1,1,0,0,0,0-2H8V50H20v6Z"/>
               <path d="M57.92,41.38a1,1,0,0,0-.21-1.09l-10-10a1,1,0,0,0-1.42,0l-10,10a1,1,0,0,0-.21,1.09A1,1,0,0,0,37,42h4.93A7,7,0,0,1,35,48H27a1,1,0,0,0-1,1v4a1,1,0,0,0,2,0V50h7a9,9,0,0,0,9-9,1,1,0,0,0-1-1H39.41L47,32.41,54.59,40H51a1,1,0,0,0-1,1A15,15,0,0,1,35,56H27a1,1,0,0,0,0,2h8A17,17,0,0,0,52,42h5A1,1,0,0,0,57.92,41.38Z"/>
               <circle cx="21" cy="9" r="1"/>
               <circle cx="25" cy="9" r="1"/>
               <circle cx="29" cy="9" r="1"/>
               <path d="M38,8a1,1,0,0,0,0,2h9a1,1,0,0,0,0-2Z"/>
               <path d="M51,8a1,1,0,0,0,0,2h5a1,1,0,0,0,0-2Z"/>
               <path d="M39,34a1,1,0,0,0,1-1V28a1,1,0,0,0-2,0v4H35.62l-3.73-7.45a1,1,0,0,0-1.78,0L29,26.76l-2.11-4.21a1,1,0,0,0-1.78,0L22,28.76V18H38v6a1,1,0,0,0,2,0V17a1,1,0,0,0-1-1H21a1,1,0,0,0-1,1V33a1,1,0,0,0,1,1Zm-8-6.76L33.38,32H31.62l-1.5-3Zm-5-2L29.38,32H22.62Z"/>
               <path d="M31,36H25a1,1,0,0,0,0,2h6a1,1,0,0,0,0-2Z"/>
               <path d="M31,40H22a1,1,0,0,0,0,2h9a1,1,0,0,0,0-2Z"/>
               <path d="M57,18a1,1,0,0,0,0-2H45a1,1,0,0,0-1,1v4a1,1,0,0,0,1,1H57a1,1,0,0,0,0-2H46V18Z"/>
               <path d="M57,24H49a1,1,0,0,0,0,2h8a1,1,0,0,0,0-2Z"/>
               <circle cx="34" cy="21" r="1"/>
               <path d="M61,4H17a1,1,0,0,0-1,1V45a1,1,0,0,0,1,1H36.92a1,1,0,0,0,0-2H18V14H57a1,1,0,0,0,0-2H34V6H60V44H54.48a1,1,0,1,0,0,2H61a1,1,0,0,0,1-1V5A1,1,0,0,0,61,4ZM32,12H18V6H32Z"/>
          </g>
     </g>
</svg>
