<svg width="20" height="18" viewBox="0 0 20 18" fill="none" xmlns="http://www.w3.org/2000/svg">
<path d="M4.52045 12.1543L3.38767 11.0215C4.50283 14.6756 8.3691 16.7338 12.0232 15.6186C13.4157 15.1936 14.6387 14.34 15.5179 13.1795L16.5205 13.9391C13.7976 17.5387 8.67216 18.2496 5.07245 15.5267C3.58044 14.3982 2.52081 12.7919 2.07048 10.9762L0.889868 12.1543L0 11.265L2.7061 8.55892L5.41221 11.265L4.52045 12.1543Z" fill="black"/>
<path d="M17.2939 9.45383L14.5878 6.74772L15.4777 5.85785L16.6237 7.00323C15.5183 3.34326 11.6553 1.27234 7.99533 2.37772C6.53958 2.81738 5.26912 3.72412 4.38016 4.95792L3.35876 4.22286C4.62108 2.45808 6.53635 1.27101 8.67846 0.925822C9.1175 0.85455 9.56156 0.818562 10.0063 0.818208C13.7633 0.819978 17.0339 3.38602 17.9296 7.0347L19.1077 5.85785L20 6.74772L17.2939 9.45383ZM17.2625 7.64074L17.2946 7.67283L17.3411 7.62563L17.2625 7.64074Z" fill="black"/>
</svg>
