<svg xmlns="http://www.w3.org/2000/svg" width="18.25" height="23"><path d="M9.05 12.387h.14a4 4 0 003.13-1.456c1.71-2.069 1.42-5.613 1.39-5.952-.11-2.537-1.23-3.748-2.15-4.314a4.7 4.7 0 00-2.39-.677H9.1a4.67 4.67 0 00-2.39.654c-.94.568-2.07 1.783-2.18 4.337-.03.339-.32 3.883 1.39 5.952a3.989 3.989 0 003.13 1.456zM5.71 5.102a.385.385 0 01.01-.04c.14-3.411 2.4-3.781 3.37-3.781h.05c1.2.031 3.24.55 3.38 3.781v.04c.01.031.32 3.271-1.09 4.974a2.827 2.827 0 01-2.29 1.022H9.1a2.827 2.827 0 01-2.29-1.022c-1.4-1.693-1.1-4.95-1.1-4.976zm12.53 13.162v-.137c-.03-.944-.09-3.146-2.01-3.852l-.05-.015a12.3 12.3 0 01-3.68-1.8.579.579 0 00-.84.157.668.668 0 00.15.891 13.224 13.224 0 004.05 1.989c1.04.4 1.15 1.583 1.18 2.672a.5.5 0 00.01.12 9.969 9.969 0 01-.09 1.469 16.678 16.678 0 01-15.67-.008 8.746 8.746 0 01-.09-1.469v-.119c.04-1.087.15-2.272 1.19-2.669a13.534 13.534 0 004.05-1.988.669.669 0 00.15-.891.574.574 0 00-.84-.157 12.376 12.376 0 01-3.68 1.8c-.02 0-.03.01-.05.014C.1 14.983.04 17.185.01 18.125v.136a7.745 7.745 0 00.22 2.155.675.675 0 00.23.3 17.638 17.638 0 0017.34 0 .611.611 0 00.23-.3 8.013 8.013 0 00.21-2.152z" fill="#5774b8" fill-rule="evenodd"/></svg>