<svg xmlns="http://www.w3.org/2000/svg" width="19.97" height="23.812"><path d="M17.1 15.002a2.135 2.135 0 00-3.27-.419l-1.71 1.376a7.216 7.216 0 00-.34-.245 4.539 4.539 0 01-.45-.332 16.923 16.923 0 01-3.51-4.239 10.014 10.014 0 01-1.05-2.288c.44-.321.85-.662 1.25-1 .15-.119.3-.25.45-.373a2.343 2.343 0 00.41-3.443L7.73 2.506c-.13-.169-.26-.349-.39-.526-.25-.349-.52-.707-.79-1.044a2.286 2.286 0 00-1.53-.941A2.339 2.339 0 003.3.52c-.01.006-.01.006-.01.011l-1.84 1.5A3.723 3.723 0 00.13 4.215a9.3 9.3 0 00.18 3.779 22.02 22.02 0 002.93 6.827 23.056 23.056 0 006.81 7.075 11.562 11.562 0 004.08 1.834c.1.017.2.036.3.049a3.566 3.566 0 002.92-.883.07.07 0 01.02-.025 12.151 12.151 0 01.95-.793c.23-.177.47-.364.7-.562a2.507 2.507 0 00.93-1.635 2.469 2.469 0 00-.54-1.8zm1.1 5.469c-.01 0-.01 0 0 0-.22.183-.43.352-.66.534a12.273 12.273 0 00-1.05.878 2.269 2.269 0 01-1.9.562c-.07-.01-.15-.019-.22-.031a10.262 10.262 0 01-3.61-1.645 22.025 22.025 0 01-6.42-6.664 20.82 20.82 0 01-2.75-6.416 7.45 7.45 0 01-.17-3.192 2.327 2.327 0 01.84-1.4L4.1 1.608a1.074 1.074 0 01.77-.264 1.014 1.014 0 01.66.441.058.058 0 01.02.019c.26.318.5.647.76 1 .13.179.26.358.39.545l1.16 1.524a.976.976 0 01-.19 1.543c-.15.13-.3.259-.46.38-.46.374-.89.727-1.35 1.061a.238.238 0 00-.03.018 1.044 1.044 0 00-.38 1.1.082.082 0 00.01.049 11.053 11.053 0 001.24 2.821 18.111 18.111 0 003.8 4.575c.18.153.37.285.55.41.16.11.31.217.44.322a.427.427 0 00.06.041.968.968 0 00.46.187.982.982 0 00.77-.252l1.84-1.5a1.121 1.121 0 01.78-.284.987.987 0 01.64.455c.01 0 .01 0 .01.009l2.33 3.086a1.021 1.021 0 01-.18 1.577z" fill="#5774b8" fill-rule="evenodd"/></svg>