<svg xmlns="http://www.w3.org/2000/svg" width="129.483" height="93.653"><g opacity=".1" fill="#b6b8bd"><path data-name="Path 3733" d="M71.079 56.558c0-7.14.071-14.28-.014-21.418-.143-12.054 5.551-20.76 15.853-26.243 6.441-3.429 13.457-5.777 20.217-8.6 1.647-.689 2.512-.166 2.632 1.655.239 3.62.14 6.635-3.753 8.99-5.82 3.522-10.467 8.457-12.33 15.373a21.177 21.177 0 00-.581 2.987c-.543 4.546.446 5.633 5.106 5.641 6.018.01 12.036-.034 18.053.011 8.016.061 13.158 5.207 13.191 13.248q.065 16.064 0 32.127c-.027 8.112-5.3 13.271-13.5 13.279q-15.605.016-31.21 0c-8.444-.007-13.67-5.285-13.67-13.788q.005-11.635.006-23.262z"/><path data-name="Path 3734" d="M.029 56.427c0-7.039.116-14.08-.021-21.116C-.241 22.559 5.883 13.72 16.927 8.22 23.017 5.187 29.51 2.966 35.804.339c1.882-.785 2.683-.1 2.809 1.785.237 3.53.036 6.394-3.714 8.727-6.625 4.12-11.729 9.794-13.03 18.01-.739 4.667.352 6.068 4.965 6.077 6.019.012 12.038-.023 18.056.01 8.166.044 13.433 5.24 13.465 13.349q.063 16.372 0 32.744a12.33 12.33 0 01-12.373 12.518q-16.676.192-33.357.006C5.308 93.495.05 87.965.03 80.6.009 72.544.026 64.486.029 56.427z"/></g></svg>