<svg xmlns="http://www.w3.org/2000/svg" width="424" height="424"><g data-name="Group 1474" opacity=".46" fill="#b6b8bd"><g data-name="Group 1094" transform="translate(-683 -2443)"><circle data-name="Ellipse 67" cx="4.5" cy="4.5" r="4.5" transform="translate(683 2443)"/><circle data-name="Ellipse 68" cx="4.5" cy="4.5" r="4.5" transform="translate(718 2443)"/><circle data-name="Ellipse 69" cx="4.5" cy="4.5" r="4.5" transform="translate(752 2443)"/><circle data-name="Ellipse 70" cx="4.5" cy="4.5" r="4.5" transform="translate(787 2443)"/><circle data-name="Ellipse 71" cx="4.5" cy="4.5" r="4.5" transform="translate(821 2443)"/><circle data-name="Ellipse 72" cx="4.5" cy="4.5" r="4.5" transform="translate(856 2443)"/><circle data-name="Ellipse 73" cx="4.5" cy="4.5" r="4.5" transform="translate(891 2443)"/><circle data-name="Ellipse 74" cx="4.5" cy="4.5" r="4.5" transform="translate(925 2443)"/><circle data-name="Ellipse 75" cx="4.5" cy="4.5" r="4.5" transform="translate(960 2443)"/><circle data-name="Ellipse 76" cx="4.5" cy="4.5" r="4.5" transform="translate(994 2443)"/><circle data-name="Ellipse 77" cx="4.5" cy="4.5" r="4.5" transform="translate(1029 2443)"/><circle data-name="Ellipse 78" cx="4.5" cy="4.5" r="4.5" transform="translate(1063 2443)"/><circle data-name="Ellipse 79" cx="4.5" cy="4.5" r="4.5" transform="translate(1098 2443)"/></g><g data-name="Group 1095" transform="translate(-683 -2401)"><circle data-name="Ellipse 67" cx="4.5" cy="4.5" r="4.5" transform="translate(683 2443)"/><circle data-name="Ellipse 68" cx="4.5" cy="4.5" r="4.5" transform="translate(718 2443)"/><circle data-name="Ellipse 69" cx="4.5" cy="4.5" r="4.5" transform="translate(752 2443)"/><circle data-name="Ellipse 70" cx="4.5" cy="4.5" r="4.5" transform="translate(787 2443)"/><circle data-name="Ellipse 71" cx="4.5" cy="4.5" r="4.5" transform="translate(821 2443)"/><circle data-name="Ellipse 72" cx="4.5" cy="4.5" r="4.5" transform="translate(856 2443)"/><circle data-name="Ellipse 73" cx="4.5" cy="4.5" r="4.5" transform="translate(891 2443)"/><circle data-name="Ellipse 74" cx="4.5" cy="4.5" r="4.5" transform="translate(925 2443)"/><circle data-name="Ellipse 75" cx="4.5" cy="4.5" r="4.5" transform="translate(960 2443)"/><circle data-name="Ellipse 76" cx="4.5" cy="4.5" r="4.5" transform="translate(994 2443)"/><circle data-name="Ellipse 77" cx="4.5" cy="4.5" r="4.5" transform="translate(1029 2443)"/><circle data-name="Ellipse 78" cx="4.5" cy="4.5" r="4.5" transform="translate(1063 2443)"/><circle data-name="Ellipse 79" cx="4.5" cy="4.5" r="4.5" transform="translate(1098 2443)"/></g><g data-name="Group 1096" transform="translate(-683 -2360)"><circle data-name="Ellipse 67" cx="4.5" cy="4.5" r="4.5" transform="translate(683 2443)"/><circle data-name="Ellipse 68" cx="4.5" cy="4.5" r="4.5" transform="translate(718 2443)"/><circle data-name="Ellipse 69" cx="4.5" cy="4.5" r="4.5" transform="translate(752 2443)"/><circle data-name="Ellipse 70" cx="4.5" cy="4.5" r="4.5" transform="translate(787 2443)"/><circle data-name="Ellipse 71" cx="4.5" cy="4.5" r="4.5" transform="translate(821 2443)"/><circle data-name="Ellipse 72" cx="4.5" cy="4.5" r="4.5" transform="translate(856 2443)"/><circle data-name="Ellipse 73" cx="4.5" cy="4.5" r="4.5" transform="translate(891 2443)"/><circle data-name="Ellipse 74" cx="4.5" cy="4.5" r="4.5" transform="translate(925 2443)"/><circle data-name="Ellipse 75" cx="4.5" cy="4.5" r="4.5" transform="translate(960 2443)"/><circle data-name="Ellipse 76" cx="4.5" cy="4.5" r="4.5" transform="translate(994 2443)"/><circle data-name="Ellipse 77" cx="4.5" cy="4.5" r="4.5" transform="translate(1029 2443)"/><circle data-name="Ellipse 78" cx="4.5" cy="4.5" r="4.5" transform="translate(1063 2443)"/><circle data-name="Ellipse 79" cx="4.5" cy="4.5" r="4.5" transform="translate(1098 2443)"/></g><g data-name="Group 1097" transform="translate(-683 -2318)"><circle data-name="Ellipse 67" cx="4.5" cy="4.5" r="4.5" transform="translate(683 2443)"/><circle data-name="Ellipse 68" cx="4.5" cy="4.5" r="4.5" transform="translate(718 2443)"/><circle data-name="Ellipse 69" cx="4.5" cy="4.5" r="4.5" transform="translate(752 2443)"/><circle data-name="Ellipse 70" cx="4.5" cy="4.5" r="4.5" transform="translate(787 2443)"/><circle data-name="Ellipse 71" cx="4.5" cy="4.5" r="4.5" transform="translate(821 2443)"/><circle data-name="Ellipse 72" cx="4.5" cy="4.5" r="4.5" transform="translate(856 2443)"/><circle data-name="Ellipse 73" cx="4.5" cy="4.5" r="4.5" transform="translate(891 2443)"/><circle data-name="Ellipse 74" cx="4.5" cy="4.5" r="4.5" transform="translate(925 2443)"/><circle data-name="Ellipse 75" cx="4.5" cy="4.5" r="4.5" transform="translate(960 2443)"/><circle data-name="Ellipse 76" cx="4.5" cy="4.5" r="4.5" transform="translate(994 2443)"/><circle data-name="Ellipse 77" cx="4.5" cy="4.5" r="4.5" transform="translate(1029 2443)"/><circle data-name="Ellipse 78" cx="4.5" cy="4.5" r="4.5" transform="translate(1063 2443)"/><circle data-name="Ellipse 79" cx="4.5" cy="4.5" r="4.5" transform="translate(1098 2443)"/></g><g data-name="Group 1098" transform="translate(-683 -2277)"><circle data-name="Ellipse 67" cx="4.5" cy="4.5" r="4.5" transform="translate(683 2443)"/><circle data-name="Ellipse 68" cx="4.5" cy="4.5" r="4.5" transform="translate(718 2443)"/><circle data-name="Ellipse 69" cx="4.5" cy="4.5" r="4.5" transform="translate(752 2443)"/><circle data-name="Ellipse 70" cx="4.5" cy="4.5" r="4.5" transform="translate(787 2443)"/><circle data-name="Ellipse 71" cx="4.5" cy="4.5" r="4.5" transform="translate(821 2443)"/><circle data-name="Ellipse 72" cx="4.5" cy="4.5" r="4.5" transform="translate(856 2443)"/><circle data-name="Ellipse 73" cx="4.5" cy="4.5" r="4.5" transform="translate(891 2443)"/><circle data-name="Ellipse 74" cx="4.5" cy="4.5" r="4.5" transform="translate(925 2443)"/><circle data-name="Ellipse 75" cx="4.5" cy="4.5" r="4.5" transform="translate(960 2443)"/><circle data-name="Ellipse 76" cx="4.5" cy="4.5" r="4.5" transform="translate(994 2443)"/><circle data-name="Ellipse 77" cx="4.5" cy="4.5" r="4.5" transform="translate(1029 2443)"/><circle data-name="Ellipse 78" cx="4.5" cy="4.5" r="4.5" transform="translate(1063 2443)"/><circle data-name="Ellipse 79" cx="4.5" cy="4.5" r="4.5" transform="translate(1098 2443)"/></g><g data-name="Group 1099" transform="translate(-683 -2235)"><circle data-name="Ellipse 67" cx="4.5" cy="4.5" r="4.5" transform="translate(683 2443)"/><circle data-name="Ellipse 68" cx="4.5" cy="4.5" r="4.5" transform="translate(718 2443)"/><circle data-name="Ellipse 69" cx="4.5" cy="4.5" r="4.5" transform="translate(752 2443)"/><circle data-name="Ellipse 70" cx="4.5" cy="4.5" r="4.5" transform="translate(787 2443)"/><circle data-name="Ellipse 71" cx="4.5" cy="4.5" r="4.5" transform="translate(821 2443)"/><circle data-name="Ellipse 72" cx="4.5" cy="4.5" r="4.5" transform="translate(856 2443)"/><circle data-name="Ellipse 73" cx="4.5" cy="4.5" r="4.5" transform="translate(891 2443)"/><circle data-name="Ellipse 74" cx="4.5" cy="4.5" r="4.5" transform="translate(925 2443)"/><circle data-name="Ellipse 75" cx="4.5" cy="4.5" r="4.5" transform="translate(960 2443)"/><circle data-name="Ellipse 76" cx="4.5" cy="4.5" r="4.5" transform="translate(994 2443)"/><circle data-name="Ellipse 77" cx="4.5" cy="4.5" r="4.5" transform="translate(1029 2443)"/><circle data-name="Ellipse 78" cx="4.5" cy="4.5" r="4.5" transform="translate(1063 2443)"/><circle data-name="Ellipse 79" cx="4.5" cy="4.5" r="4.5" transform="translate(1098 2443)"/></g><g data-name="Group 1100" transform="translate(-683 -2194)"><circle data-name="Ellipse 67" cx="4.5" cy="4.5" r="4.5" transform="translate(683 2443)"/><circle data-name="Ellipse 68" cx="4.5" cy="4.5" r="4.5" transform="translate(718 2443)"/><circle data-name="Ellipse 69" cx="4.5" cy="4.5" r="4.5" transform="translate(752 2443)"/><circle data-name="Ellipse 70" cx="4.5" cy="4.5" r="4.5" transform="translate(787 2443)"/><circle data-name="Ellipse 71" cx="4.5" cy="4.5" r="4.5" transform="translate(821 2443)"/><circle data-name="Ellipse 72" cx="4.5" cy="4.5" r="4.5" transform="translate(856 2443)"/><circle data-name="Ellipse 73" cx="4.5" cy="4.5" r="4.5" transform="translate(891 2443)"/><circle data-name="Ellipse 74" cx="4.5" cy="4.5" r="4.5" transform="translate(925 2443)"/><circle data-name="Ellipse 75" cx="4.5" cy="4.5" r="4.5" transform="translate(960 2443)"/><circle data-name="Ellipse 76" cx="4.5" cy="4.5" r="4.5" transform="translate(994 2443)"/><circle data-name="Ellipse 77" cx="4.5" cy="4.5" r="4.5" transform="translate(1029 2443)"/><circle data-name="Ellipse 78" cx="4.5" cy="4.5" r="4.5" transform="translate(1063 2443)"/><circle data-name="Ellipse 79" cx="4.5" cy="4.5" r="4.5" transform="translate(1098 2443)"/></g><g data-name="Group 1101" transform="translate(-683 -2152)"><circle data-name="Ellipse 67" cx="4.5" cy="4.5" r="4.5" transform="translate(683 2443)"/><circle data-name="Ellipse 68" cx="4.5" cy="4.5" r="4.5" transform="translate(718 2443)"/><circle data-name="Ellipse 69" cx="4.5" cy="4.5" r="4.5" transform="translate(752 2443)"/><circle data-name="Ellipse 70" cx="4.5" cy="4.5" r="4.5" transform="translate(787 2443)"/><circle data-name="Ellipse 71" cx="4.5" cy="4.5" r="4.5" transform="translate(821 2443)"/><circle data-name="Ellipse 72" cx="4.5" cy="4.5" r="4.5" transform="translate(856 2443)"/><circle data-name="Ellipse 73" cx="4.5" cy="4.5" r="4.5" transform="translate(891 2443)"/><circle data-name="Ellipse 74" cx="4.5" cy="4.5" r="4.5" transform="translate(925 2443)"/><circle data-name="Ellipse 75" cx="4.5" cy="4.5" r="4.5" transform="translate(960 2443)"/><circle data-name="Ellipse 76" cx="4.5" cy="4.5" r="4.5" transform="translate(994 2443)"/><circle data-name="Ellipse 77" cx="4.5" cy="4.5" r="4.5" transform="translate(1029 2443)"/><circle data-name="Ellipse 78" cx="4.5" cy="4.5" r="4.5" transform="translate(1063 2443)"/><circle data-name="Ellipse 79" cx="4.5" cy="4.5" r="4.5" transform="translate(1098 2443)"/></g><g data-name="Group 1102" transform="translate(-683 -2111)"><circle data-name="Ellipse 67" cx="4.5" cy="4.5" r="4.5" transform="translate(683 2443)"/><circle data-name="Ellipse 68" cx="4.5" cy="4.5" r="4.5" transform="translate(718 2443)"/><circle data-name="Ellipse 69" cx="4.5" cy="4.5" r="4.5" transform="translate(752 2443)"/><circle data-name="Ellipse 70" cx="4.5" cy="4.5" r="4.5" transform="translate(787 2443)"/><circle data-name="Ellipse 71" cx="4.5" cy="4.5" r="4.5" transform="translate(821 2443)"/><circle data-name="Ellipse 72" cx="4.5" cy="4.5" r="4.5" transform="translate(856 2443)"/><circle data-name="Ellipse 73" cx="4.5" cy="4.5" r="4.5" transform="translate(891 2443)"/><circle data-name="Ellipse 74" cx="4.5" cy="4.5" r="4.5" transform="translate(925 2443)"/><circle data-name="Ellipse 75" cx="4.5" cy="4.5" r="4.5" transform="translate(960 2443)"/><circle data-name="Ellipse 76" cx="4.5" cy="4.5" r="4.5" transform="translate(994 2443)"/><circle data-name="Ellipse 77" cx="4.5" cy="4.5" r="4.5" transform="translate(1029 2443)"/><circle data-name="Ellipse 78" cx="4.5" cy="4.5" r="4.5" transform="translate(1063 2443)"/><circle data-name="Ellipse 79" cx="4.5" cy="4.5" r="4.5" transform="translate(1098 2443)"/></g><g data-name="Group 1103" transform="translate(-683 -2069)"><circle data-name="Ellipse 67" cx="4.5" cy="4.5" r="4.5" transform="translate(683 2443)"/><circle data-name="Ellipse 68" cx="4.5" cy="4.5" r="4.5" transform="translate(718 2443)"/><circle data-name="Ellipse 69" cx="4.5" cy="4.5" r="4.5" transform="translate(752 2443)"/><circle data-name="Ellipse 70" cx="4.5" cy="4.5" r="4.5" transform="translate(787 2443)"/><circle data-name="Ellipse 71" cx="4.5" cy="4.5" r="4.5" transform="translate(821 2443)"/><circle data-name="Ellipse 72" cx="4.5" cy="4.5" r="4.5" transform="translate(856 2443)"/><circle data-name="Ellipse 73" cx="4.5" cy="4.5" r="4.5" transform="translate(891 2443)"/><circle data-name="Ellipse 74" cx="4.5" cy="4.5" r="4.5" transform="translate(925 2443)"/><circle data-name="Ellipse 75" cx="4.5" cy="4.5" r="4.5" transform="translate(960 2443)"/><circle data-name="Ellipse 76" cx="4.5" cy="4.5" r="4.5" transform="translate(994 2443)"/><circle data-name="Ellipse 77" cx="4.5" cy="4.5" r="4.5" transform="translate(1029 2443)"/><circle data-name="Ellipse 78" cx="4.5" cy="4.5" r="4.5" transform="translate(1063 2443)"/><circle data-name="Ellipse 79" cx="4.5" cy="4.5" r="4.5" transform="translate(1098 2443)"/></g><g data-name="Group 1104" transform="translate(-683 -2028)"><circle data-name="Ellipse 67" cx="4.5" cy="4.5" r="4.5" transform="translate(683 2443)"/><circle data-name="Ellipse 68" cx="4.5" cy="4.5" r="4.5" transform="translate(718 2443)"/><circle data-name="Ellipse 69" cx="4.5" cy="4.5" r="4.5" transform="translate(752 2443)"/><circle data-name="Ellipse 70" cx="4.5" cy="4.5" r="4.5" transform="translate(787 2443)"/><circle data-name="Ellipse 71" cx="4.5" cy="4.5" r="4.5" transform="translate(821 2443)"/><circle data-name="Ellipse 72" cx="4.5" cy="4.5" r="4.5" transform="translate(856 2443)"/><circle data-name="Ellipse 73" cx="4.5" cy="4.5" r="4.5" transform="translate(891 2443)"/><circle data-name="Ellipse 74" cx="4.5" cy="4.5" r="4.5" transform="translate(925 2443)"/><circle data-name="Ellipse 75" cx="4.5" cy="4.5" r="4.5" transform="translate(960 2443)"/><circle data-name="Ellipse 76" cx="4.5" cy="4.5" r="4.5" transform="translate(994 2443)"/><circle data-name="Ellipse 77" cx="4.5" cy="4.5" r="4.5" transform="translate(1029 2443)"/><circle data-name="Ellipse 78" cx="4.5" cy="4.5" r="4.5" transform="translate(1063 2443)"/><circle data-name="Ellipse 79" cx="4.5" cy="4.5" r="4.5" transform="translate(1098 2443)"/></g></g></svg>