<svg xmlns="http://www.w3.org/2000/svg" width="106" height="106"><defs><style>.b{fill:#f92524}</style></defs><g fill="#fff" stroke="#f92524" stroke-width="2"><circle cx="53" cy="53" r="53" stroke="none"/><circle cx="53" cy="53" r="52" fill="none"/></g><path class="b" d="M53.052 30c1.592.64 3.182 1.287 4.777 1.92q5.689 2.258 11.383 4.505a1.521 1.521 0 011.155 1.614c0 7.138.008 14.277-.015 21.415a10.57 10.57 0 01-2.115 5.94 26.436 26.436 0 01-6.352 6.269 48.96 48.96 0 01-8.81 5.174c-.011.005-.016.025-.023.039h-.732c-1.9-1.028-3.835-1.99-5.683-3.1a33.1 33.1 0 01-8.37-6.888 12.857 12.857 0 01-3.1-6.028 11.227 11.227 0 01-.161-1.955q-.018-10.319-.01-20.638a1.621 1.621 0 011.289-1.888l15.885-6.287a.9.9 0 00.146-.093zM51.22 73.054v-8.938a1.476 1.476 0 011.013-1.516 1.466 1.466 0 011.917 1.514c.007 2.808 0 5.615 0 8.422v.518A45.878 45.878 0 0061.813 68a20.1 20.1 0 004.1-4.4 8.253 8.253 0 001.527-4.615q-.02-9.818 0-19.637a.566.566 0 00-.417-.634q-5.317-2.086-10.623-4.2c-.732-.29-1.466-.573-2.253-.88v9.159a1.468 1.468 0 01-.993 1.487 1.467 1.467 0 01-1.933-1.493c-.007-2.869 0-5.737 0-8.606v-.529c-.135.041-.221.062-.3.094l-12.664 5c-.3.117-.326.29-.326.554q.008 9.819.011 19.637a7.6 7.6 0 00.151 1.542 10.98 10.98 0 002.915 5.1 35.513 35.513 0 008.416 6.478c.569.333 1.158.643 1.796.997z"/><path class="b" d="M49.257 56.647h-2.474c-1.022 0-1.415-.391-1.417-1.407v-4.073c0-.972.417-1.383 1.4-1.386h2.489v-.835c0-.595-.008-1.19.008-1.785a1.132 1.132 0 011.276-1.263q2.151-.016 4.3 0a1.128 1.128 0 011.276 1.27c.016.851 0 1.7 0 2.612h2.419c1.094 0 1.476.386 1.476 1.491 0 1.342.005 2.685 0 4.027 0 .933-.41 1.341-1.336 1.348-.835.007-1.67 0-2.548 0v1.324c0 .442.011.885-.007 1.327-.034.809-.414 1.227-1.213 1.241q-2.219.04-4.439 0c-.81-.014-1.2-.45-1.209-1.29s-.001-1.699-.001-2.601zm2.269-8.523c-.027.052-.052.078-.052.1q-.012 1.144-.018 2.288c-.006 1.086-.377 1.461-1.452 1.462h-2.4v2.472h2.6a1.116 1.116 0 011.148.666 2.166 2.166 0 01.105.762c.012.8 0 1.61 0 2.442h2.4c.029-.055.056-.081.056-.108.007-.778.011-1.556.016-2.334.008-1.043.4-1.429 1.445-1.43h2.412v-2.472c-.9 0-1.771.006-2.639 0a1.09 1.09 0 01-1.142-.737 2.943 2.943 0 01-.073-.725c-.009-.788 0-1.577 0-2.39z"/></svg>