<svg xmlns="http://www.w3.org/2000/svg" width="106" height="106"><g fill="#fff" stroke="#f92524" stroke-width="2"><circle cx="53" cy="53" r="53" stroke="none"/><circle cx="53" cy="53" r="52" fill="none"/></g><path d="M52.055 25c.433.119.875.214 1.3.36a7.124 7.124 0 014.793 7.44 7.289 7.289 0 01-6.221 6.088 7.117 7.117 0 01-6.821-3.774 6.592 6.592 0 01.815-7.505 7.056 7.056 0 014.311-2.522.832.832 0 00.192-.087zm3.818 6.983a4.449 4.449 0 00-4.578-4.671 4.458 4.458 0 00-4.682 4.622 4.458 4.458 0 004.635 4.671 4.449 4.449 0 004.625-4.622zm-9.365 20.549a6.252 6.252 0 00-2.051 3.474 8.929 8.929 0 00-.172 1.453 4.64 4.64 0 01-4.98 4.617 4.851 4.851 0 01-4.3-5.016c.346-6.149 3.173-10.886 8.635-13.7 5.071-2.614 10.153-2.108 14.932 1.046a12.907 12.907 0 011.435 1.074 17.388 17.388 0 006.9 3.42 4.909 4.909 0 013.316 5.758 4.646 4.646 0 01-5.929 3.149 25.949 25.949 0 01-8.369-3.83c0 1.191-.023 2.281.02 3.369.008.2.251.43.434.591a36.831 36.831 0 0110.83 16.507 4.483 4.483 0 01-1.164 4.946 4.394 4.394 0 01-4.886.954 4.7 4.7 0 01-2.789-3.073 27.674 27.674 0 00-4.239-8.21q-.147-.2-.3-.385a.987.987 0 00-.141-.1c-.077.188-.152.359-.219.534a37.335 37.335 0 01-5.518 9.742 4.832 4.832 0 01-6.59.776 4.833 4.833 0 01-.578-6.648 22.343 22.343 0 004.593-8.419 32.071 32.071 0 001.118-7.281c.074-1.56.012-3.12.012-4.748zm7.061 1.928v-2.772a1.092 1.092 0 01.63-1.057 1.275 1.275 0 011.494.3 24.2 24.2 0 009.5 4.724 2.287 2.287 0 002.772-1.484 2.273 2.273 0 00-1.423-2.945c-.65-.221-1.3-.45-1.953-.651a15.148 15.148 0 01-4.487-2.139c-.822-.593-1.627-1.211-2.439-1.819a11.892 11.892 0 00-14.325-.423 12.987 12.987 0 00-6 11.192 2.261 2.261 0 002.049 2.4 2.418 2.418 0 002.588-2.251 9.152 9.152 0 015.146-8.169 1.157 1.157 0 011.8 1.133c0 1.576.007 3.152-.007 4.728a39.937 39.937 0 01-1.134 9.416 23.64 23.64 0 01-3.953 8.219c-.46.628-.969 1.219-1.437 1.841a2.044 2.044 0 000 2.694 2.259 2.259 0 003.81-.064 33.93 33.93 0 005.866-11.3 1.241 1.241 0 01.955-1 1.307 1.307 0 011.278.548 32.026 32.026 0 016.4 11.249 2.576 2.576 0 00.986 1.224 2.187 2.187 0 002.587-.135 2.211 2.211 0 00.783-2.614 34.037 34.037 0 00-10.128-15.544 3.708 3.708 0 01-1.362-2.965c.013-.778 0-1.557 0-2.336z" fill="#f92524"/></svg>